<svg width="23708" xmlns="http://www.w3.org/2000/svg" height="18866" id="screenshot-5ffa6a61-14c1-8024-8007-0ad0f88391cd" viewBox="0 0 23708 18866" xmlns:xlink="http://www.w3.org/1999/xlink" fill="none" version="1.1"><g id="shape-5ffa6a61-14c1-8024-8007-0ad0f88391cd" rx="0" ry="0" style="fill: rgb(0, 0, 0);"><g id="shape-5ffa6a61-14c1-8024-8007-0ad0f88391ce"><g class="fills" id="fills-5ffa6a61-14c1-8024-8007-0ad0f88391ce"><path d="M14520.8125,1401.69921875C14525.8984375,1408.7421875,16329.39453125,3858.5234375,13203.90625,3657.11328125L13194.8515625,3517.9375C16130.15625,3707.1328125,14507.54296875,1462.328125,14502.8046875,1455.8203125L14520.7421875,1401.796875Z" class="fil4" style="shape-rendering: geometricprecision; text-rendering: geometricprecision; fill-rule: evenodd; clip-rule: evenodd; fill: rgb(0, 0, 0); fill-opacity: 1;"/></g></g><g id="shape-5ffa6a61-14c1-8024-8007-0ad0f883f751"><g class="fills" id="fills-5ffa6a61-14c1-8024-8007-0ad0f883f751"><path d="M13729.390625,744.3203125L13613.6640625,800.9296875C13613.6640625,800.9296875,13626.8671875,1085.98828125,13924.4609375,1140.90234375C14222.1484375,1195.82421875,14291.51953125,937.35546875,14291.51953125,937.35546875L14837.5859375,1173.3515625C14837.5859375,1173.3515625,15011.09375,1340.984375,15151.16796875,1302.10546875C15291.125,1263.31640625,15269.9140625,1187.00390625,15269.9140625,1187.00390625C15269.9140625,1187.00390625,15267.41796875,1121.37109375,15306.20703125,1141.43359375C15344.96875,1161.4921875,15331.14453125,1255.2109375,15296.2109375,1303.4375C15261.1484375,1351.671875,15232.44921875,1339.640625,15223.7421875,1363.71875C15214.96484375,1387.796875,15132.4296875,1430.67578125,15031.15625,1425.328125C14929.8828125,1419.9765625,14872.34375,1387.796875,14846.05078125,1359.703125C14819.83203125,1331.61328125,14780.96484375,1298.09375,14759.75390625,1359.703125C14738.4765625,1421.31640625,14724.71484375,1490.953125,14812.27734375,1539.09375C14899.72265625,1587.33203125,14962.3359375,1608.7265625,15036.03125,1581.9765625C15109.859375,1555.2265625,15134.83203125,1535.078125,15146.08203125,1544.5390625C15157.2890625,1553.8984375,15155.51953125,1574.046875,15133.0546875,1595.44140625C15110.48828125,1616.84375,15084.296875,1602.12890625,15075.5546875,1649.03125C15066.8125,1695.9296875,15080.53515625,1724.015625,15056.81640625,1732.03515625C15033.0390625,1740.0703125,14905.5390625,1738.7265625,14905.5390625,1738.7265625C14905.5390625,1738.7265625,14833.05859375,1649.03125,14796.77734375,1624.95703125C14760.484375,1600.890625,14641.7265625,1555.31640625,14587.9609375,1537.9375C14534.1875,1520.546875,14348.953125,1437.0078125,14178.54296875,1514.93359375C14008.17578125,1592.859375,13869.2890625,1653.046875,13765.16015625,1677.9140625C13235.04296875,1804.08203125,13237.2734375,1336.4375,13459.25,1249.32421875C13626.2734375,1183.78125,13603.15625,1344.8984375,13581.59765625,1382.171875C13560.109375,1419.34765625,13586.578125,1479.53125,13656.015625,1414C13725.45703125,1348.46875,13783.2734375,1087.046875,13518.90625,1015.80859375C13254.58203125,944.4765625,13054.859375,1237.734375,13041.5859375,1412.9375C13028.2109375,1588.046875,13104.33984375,1875.234375,13442.8828125,1901.625C13442.8828125,1901.625,13429.859375,2059.703125,13602.6328125,2186.1328125C13775.3984375,2312.66015625,14130.87109375,2535.65234375,14296.8828125,2654.13671875C14857.92578125,3054.7421875,15253.13671875,3738.2421875,15118.25390625,4480.15625C15021.78515625,5010.9296875,14991.8359375,5096.4375,14991.8359375,5096.4375C14991.8359375,5096.4375,14662.484375,5007.3671875,14512.80078125,4775.8203125C14512.80078125,4775.8203125,14441.3046875,4703.15625,14442.734375,4767.875C14444.1640625,4832.609375,14615.328125,4998.453125,14797.92578125,5077.8046875C14980.515625,5157.2421875,15505.546875,5332.453125,15613.92578125,5360.96875C15722.375,5389.515625,15741.35546875,5379.34375,15741.35546875,5448.53125C15741.35546875,5517.8125,15723.87109375,5598.765625,15708.625,5641.0234375C15693.30078125,5683.203125,15262.15625,6399.2578125,15086.07421875,6595.8515625C14909.99609375,6792.546875,14589.84375,7302.1875,14097.95703125,7268.21875C13606.1171875,7234.15625,13716.828125,6761.9609375,13744.47265625,6683.859375C13744.47265625,6683.859375,13801.34765625,6524.890625,13984.0078125,6520.25C14166.69921875,6515.609375,14241.51171875,6683.5,14241.51171875,6683.5C14241.51171875,6683.5,14310.53515625,6903.734375,14150.828125,6956.15625C13991.1796875,7008.5,13940.79296875,6891.421875,13933.65234375,6863.703125C13926.4453125,6835.96875,13909.23828125,6726.6484375,14032.90625,6715.8671875C14156.5390625,6705.0703125,14111.9609375,6840.609375,14096.1796875,6852.90625C14080.3359375,6865.21875,14024.859375,6891.515625,13998.390625,6812.875C13998.390625,6812.875,13953.8125,6839.09375,13976.796875,6871.4453125C13999.8203125,6903.828125,14113.4921875,6960.796875,14158.0703125,6843.7265625C14202.64453125,6726.6484375,14089.04296875,6600.3125,13971.015625,6661.921875C13853.05859375,6723.53125,13855.9140625,6851.390625,13896.21484375,6922.28125C13936.5078125,6993.0703125,14063.0234375,7088.640625,14157.96875,7026.953125C14252.9375,6965.34375,14232.76953125,6977.640625,14313.35546875,6985.3984375C14393.9765625,6993.0703125,14517.60546875,6936.09375,14626.92578125,6808.234375C14736.24609375,6680.375,14927.55078125,6301.359375,15000.47265625,6128.921875C15073.5,5956.484375,15161.46875,5692.484375,15163.9765625,5654.765625C15166.484375,5617.046875,15148.9375,5595.46875,15126.30078125,5619.71875C15103.625,5643.96875,14728.72265625,5757.1171875,14424.34375,5703.265625C14119.8984375,5649.4140625,14049.484375,5538.9453125,14029.3203125,5571.21875C14009.15234375,5603.5859375,14019.25390625,5652.078125,14104.75,5689.8046875C14190.3125,5727.5234375,14497.19921875,5786.8125,14552.578125,5786.8125C14607.9453125,5786.8125,14602.9375,5786.8125,14582.8046875,5816.40625C14562.640625,5846.1015625,14258.71875,6201.765625,13905.75390625,6375.2734375C13552.79296875,6548.78125,13079.578125,6884.734375,11981.515625,6685.1953125C11981.515625,6685.1953125,11958.703125,6688.578125,11952.9296875,6723.984375C11947.11328125,6759.46875,11867.6015625,7419.078125,11235.234375,7758.8671875C11235.234375,7758.8671875,11003.88671875,7853.640625,10943.4296875,7866.046875C10882.96875,7878.34375,10882.96875,7918.375,10914.62890625,7941.5625C10946.2890625,7964.65625,11357.71875,8219.828125,11518.36328125,8744.375C11679.125,9268.984375,11786.98046875,9782.7265625,11757.02734375,10117.703125C11727.0859375,10452.6875,11462.0546875,10738.8046875,11120.55078125,10616.921875C10779.1875,10495.03125,10836.09765625,10141.25,10881.9921875,10049.859375C10927.8984375,9958.46875,11061.45703125,9796.7265625,11299.9375,9918.609375C11299.9375,9918.609375,11420.296875,10005.28125,11391.8515625,10159.96875C11363.4296875,10314.6640625,11214.65234375,10366.203125,11105.2265625,10293.5390625C11105.2265625,10293.5390625,11034.8828125,10223.1875,11059.33203125,10138.484375C11083.73828125,10053.78125,11224.78515625,10052.265625,11242.09765625,10124.5625C11259.37109375,10196.96875,11178.78515625,10215.515625,11151.41015625,10192.4296875C11124.03515625,10169.34375,11102.4765625,10221.671875,11131.27734375,10244.765625C11160.046875,10267.8515625,11303.94140625,10303.34375,11309.65625,10175.3984375C11315.47265625,10047.546875,11139.91796875,9950.4453125,11057.90234375,10061.3515625C10975.8828125,10172.28125,10980.234375,10314.03125,11134.203125,10387.953125C11288.20703125,10461.96875,11395.890625,10347.6640625,11418.6953125,10290.59375C11441.5078125,10233.53125,11420.57421875,10180.5703125,11464.35546875,10158.1953125C11508.1328125,10135.71875,11549.953125,10131.7109375,11561.44921875,10072.6015625C11572.87109375,10013.484375,11582.9375,9728.703125,11534.76953125,9552.9609375C11486.64453125,9377.234375,11138.765625,8432.21875,10126.8671875,8157.78125L9804.65625,8068.5234375L9738.9453125,7885.734375C9738.9453125,7885.734375,9736.8203125,7867.015625,9804.65625,7876.390625C9872.4921875,7885.734375,10477.9453125,7900.90625,10462.62109375,7378.3359375C10462.62109375,7378.3359375,9763.80078125,7340.625,9484.2265625,6805.921875C8714.640625,5334.40625,10683.453125,4614.078125,10892.3359375,5782.890625C11035.859375,6586.1328125,10112.41015625,6737.796875,9950.265625,6260.5234375C9817.0546875,5868.390625,10127.38671875,5730.734375,10127.38671875,5730.734375C10127.38671875,5730.734375,10409.7578125,5606.53125,10492.921875,5876.0625C10605.8984375,6241.9765625,10157.05859375,6306.4453125,10160.30078125,6056.515625C10162.42578125,5880.703125,10285.015625,5911.1953125,10285.015625,5911.1953125C10285.015625,5911.1953125,10300.3359375,5845.5703125,10269.6875,5845.5703125C10239.00390625,5845.5703125,10107.67578125,5843.25,10083.609375,6028.34375C10048.75,6296.546875,10440.609375,6414.859375,10580.47265625,6084.609375C10654.9296875,5908.78125,10499.5390625,5590.125,10214.9375,5615.890625C9930.34375,5641.65625,9796.890625,5979.125,9856.02734375,6183.046875C9915.125,6386.953125,10042.06640625,6621.359375,10405.37109375,6609.59375C11269.26171875,6581.765625,11171.6796875,4955.921875,10067.83984375,5134.78125C9037.4765625,5301.78125,8983.6328125,6706.8671875,9938.04296875,7302.734375C8136.4921875,6842.296875,8916.0703125,3671.11328125,11116.65234375,4738.1875C11116.65234375,4738.1875,11322.40234375,5402.0859375,11705.421875,5741.6015625C12088.43359375,6081.046875,12550.78125,6161.1953125,13017.51953125,6062.2265625C13484.22265625,5963.171875,13812.4921875,5662.34375,14021.484375,5311.84375C14418.04296875,4646.796875,14090.64453125,3586.140625,13279.90234375,3437.0625C13279.90234375,3437.0625,13213.03125,3151.03515625,13021.9765625,2921.62109375C12830.92578125,2692.2109375,12454.48828125,2348.5,12477.40625,1766.2734375C12500.4296875,1184.0625,13110.57421875,574.4609375,13729.1484375,744.3203125ZM14187.5625,1279.37109375C14187.5625,1279.37109375,14293.29296875,1112.453125,14419.74609375,1162.66015625C14546.16796875,1212.85546875,14551.390625,1267.515625,14589.84375,1248.1640625C14628.25,1228.8203125,14620.8671875,1167.1171875,14660.08203125,1176.4765625C14699.3359375,1185.75,14744.32421875,1218.55859375,14707.34375,1301.390625C14629.15625,1476.2421875,14468.16015625,1335.453125,14389.515625,1295.234375C14329.7578125,1264.65625,14254.1875,1300.3203125,14226.8828125,1308.5234375C14199.61328125,1316.63671875,14152.8125,1337.6796875,14187.66796875,1279.37109375Z" class="fil0" style="shape-rendering: geometricprecision; text-rendering: geometricprecision; fill-rule: evenodd; clip-rule: evenodd; fill: rgb(0, 0, 0); fill-opacity: 1;"/></g></g><g id="shape-5ffa6a61-14c1-8024-8007-0ad0f883f752"><g class="fills" id="fills-5ffa6a61-14c1-8024-8007-0ad0f883f752"><path d="M13655.14453125,1275.0859375C13655.14453125,1275.0859375,13554.39453125,1127.34375,13381.453125,1207.0625C13213.7265625,1284.3671875,13187.953125,1700.03125,13525.9765625,1760.390625C13887.40234375,1824.85546875,14066.23046875,1529.37890625,14292.21484375,1558.796875C14134.25,1641.546875,13943.0234375,1805.5078125,13778.2578125,1845.08984375C12968.828125,2040.09375,12971.51171875,1055.671875,13456.046875,1088.390625C13636.9296875,1100.59765625,13655.14453125,1275.0859375,13655.14453125,1275.0859375Z" class="fil0" style="shape-rendering: geometricprecision; text-rendering: geometricprecision; fill-rule: evenodd; clip-rule: evenodd; fill: rgb(0, 0, 0); fill-opacity: 1;"/></g></g><g id="shape-5ffa6a61-14c1-8024-8007-0ad0f883f753"><g class="fills" id="fills-5ffa6a61-14c1-8024-8007-0ad0f883f753"><path d="M13490.390625,1906.98046875C13491.015625,1909.0234375,13565.08984375,1912.953125,13562.859375,1910.8984375C13561.8828125,1910.09375,13581.59765625,1970.28125,13588.28125,1984.00390625C13604.5859375,2017.53515625,13636.40625,2109.4609375,13945.13671875,2259.515625C14253.9140625,2409.57421875,14715.0078125,2731.1796875,14901.4296875,2954.96875C15087.77734375,3178.7578125,15423.15234375,3727.1953125,15150.0859375,4755.390625L15088.546875,4975.3515625C15077.78125,5014.0546875,15063.328125,5035.2734375,15073.5703125,4972.859375C15121.83984375,4682.2890625,15203.40234375,4450.7265625,15193.30078125,4137.234375C15175.74609375,3591.3125,14855.875,3025.671875,14448.23828125,2708.8046875C14168.65234375,2491.421875,13838.53515625,2289.1171875,13838.53515625,2289.1171875C13838.53515625,2289.1171875,13669.671875,2207.8984375,13567.140625,2066.5703125C13540.39453125,2029.75,13504.1015625,1951.64453125,13490.4609375,1906.8828125Z" class="fil0" style="shape-rendering: geometricprecision; text-rendering: geometricprecision; fill-rule: evenodd; clip-rule: evenodd; fill: rgb(0, 0, 0); fill-opacity: 1;"/></g></g><g id="shape-5ffa6a61-14c1-8024-8007-0ad0f884138b"><g class="fills" id="fills-5ffa6a61-14c1-8024-8007-0ad0f884138b"><path d="M15076.53125,5121.75L15200.09375,4707.0703125C15200.09375,4707.0703125,15200.09375,4655.5390625,15235.12890625,4674.265625C15270.16015625,4693.078125,15689.71484375,4748.890625,15746.6171875,4741.84375C15803.59375,4734.8046875,15807.94921875,4704.3125,15864.8125,4781.703125C15921.79296875,4859.09375,16797.109375,5911.3671875,16797.109375,5911.3671875C16797.109375,5911.3671875,17082.953125,6256.15625,17102.9140625,6498.671875C17122.8671875,6741.1875,16991.64453125,6844.171875,16991.64453125,6844.171875C16991.64453125,6844.171875,16831.71875,7013.390625,16566.90625,6897.2265625C16302.2265625,6780.953125,16420.25390625,6495.453125,16420.25390625,6495.453125C16420.25390625,6495.453125,16496.484375,6299.671875,16671.6640625,6324.09375C16846.87109375,6348.609375,16867.80078125,6526.0390625,16852.546875,6566.7890625C16837.328125,6607.5390625,16780.1796875,6746.2734375,16645.01953125,6687.15625C16645.01953125,6687.15625,16573.9453125,6651.859375,16584.84375,6572.5C16595.703125,6493.2265625,16659.99609375,6479.2265625,16687.19921875,6492.078125C16714.4609375,6504.9140625,16751.484375,6545.75,16725.359375,6587.65625C16699.25,6629.5625,16697.01953125,6631.96875,16714.4609375,6635.4375C16731.83984375,6638.921875,16786.3125,6612.171875,16791.78125,6535.234375C16797.2109375,6458.28125,16648.05078125,6371.96875,16571.8203125,6465.234375C16495.578125,6558.5,16512.9921875,6676.28125,16630.56640625,6734.59375C16748.171875,6792.8984375,16874.48828125,6692.59375,16896.2578125,6622.6015625C16918.0234375,6552.609375,16928.1875,6459.9765625,16861.56640625,6372.234375C16794.87890625,6284.59375,16387.72265625,5874.1015625,16129.984375,5719.046875C15872.12890625,5564,15785.20703125,5498.828125,15785.20703125,5498.828125L15792.44921875,5394.7734375C15792.44921875,5394.7734375,15792.44921875,5345.109375,15719.76171875,5321.03125C15647.1171875,5296.8671875,15076.35546875,5121.75,15076.35546875,5121.75Z" class="fil0" style="shape-rendering: geometricprecision; text-rendering: geometricprecision; fill-rule: evenodd; clip-rule: evenodd; fill: rgb(0, 0, 0); fill-opacity: 1;"/></g></g><g id="shape-5ffa6a61-14c1-8024-8007-0ad0f884138c"><g class="fills" id="fills-5ffa6a61-14c1-8024-8007-0ad0f884138c"><path d="M11319.40625,7776.4296875C11319.40625,7776.4296875,11844.796875,7498.515625,12017.5625,6762.765625C12017.5625,6762.765625,12010.87890625,6735.4765625,12059.7421875,6758.3046875C12108.5625,6781.1328125,12342.8046875,6826.6953125,12369.09765625,6818.671875C12395.39453125,6810.6484375,12390.37890625,6846.84375,12379.09375,6858.875C12367.84375,6870.9140625,12117.33984375,7171.390625,12074.7109375,7210.2578125C12032.0859375,7249.140625,12024.6015625,7267.953125,12024.6015625,7267.953125C12024.6015625,7267.953125,12638.40234375,7829.4921875,12769.3828125,8209.9375C12900.4375,8590.296875,12973.4609375,8984.640625,12930.0390625,9229.84375C12886.5390625,9474.9453125,12588.15234375,9571.15625,12382.3671875,9447.046875C12176.6875,9322.9375,12253.44140625,9074.890625,12341.09375,8999.453125C12428.75,8924.03125,12602.12109375,8905.5703125,12665.01171875,9017.828125C12727.84375,9130.078125,12651.63671875,9234.125,12611.6640625,9262.671875C12571.75,9291.1875,12502.65625,9276.4765625,12461.28125,9225.46875C12419.90625,9174.484375,12443.7265625,9092.71875,12481.34375,9077.921875C12518.94921875,9063.203125,12589.0234375,9080.578125,12587.76953125,9127.5859375C12586.515625,9174.484375,12586.515625,9199.9765625,12556.421875,9187.9453125C12526.33203125,9175.90625,12506.28125,9134.2734375,12491.3046875,9151.7421875C12476.2578125,9169.2265625,12483.74609375,9228.15625,12533.92578125,9237.609375C12584.04296875,9247.0625,12632.8984375,9194.71875,12635.40625,9157.171875C12637.87890625,9119.6484375,12617.828125,9018.9765625,12543.921875,9017.65625C12470.0234375,9016.3046875,12381.11328125,9069.9765625,12387.3828125,9157.171875C12393.6171875,9244.3828125,12453.79296875,9338.2578125,12559.00390625,9340.9375C12664.17578125,9343.609375,12739.328125,9232.265625,12746.8515625,9188.03125C12754.3046875,9143.796875,12748.1015625,9108.953125,12766.91015625,9086.125C12785.71875,9063.2890625,12803.203125,9041.890625,12804.52734375,9005.59375C12805.78125,8969.40625,12751.55078125,8684.7265625,12618.28125,8470.640625C12485,8256.5625,12135.06640625,8003.171875,11975.109375,7935.40625C11815.19140625,7867.6484375,11319.19921875,7776.703125,11319.19921875,7776.703125Z" class="fil0" style="shape-rendering: geometricprecision; text-rendering: geometricprecision; fill-rule: evenodd; clip-rule: evenodd; fill: rgb(0, 0, 0); fill-opacity: 1;"/></g></g><g id="shape-5ffa6a61-14c1-8024-8007-0ad0f884138d"><g class="fills" id="fills-5ffa6a61-14c1-8024-8007-0ad0f884138d"><path d="M14723.2890625,1634.67578125C14723.2890625,1634.67578125,14766.546875,1630.04296875,14779.46875,1642.34375C14792.4921875,1654.734375,14864.265625,1743.7265625,14885.82421875,1760.66796875C14907.48828125,1777.6015625,15048.52734375,1770.3828125,15064.3046875,1765.83984375C15080.1875,1761.19921875,15087.5703125,1742.03515625,15094.7109375,1708.0546875C15101.91796875,1674.171875,15115.05078125,1636.015625,15125.1171875,1635.0390625C15135.21484375,1634.14453125,15145.3515625,1775.015625,15145.3515625,1775.015625C15145.3515625,1775.015625,15145.3515625,1815.140625,15093.45703125,1815.140625C15032.69140625,1815.140625,14844.96875,1840.7265625,14806.73828125,1773.5C14786.60546875,1738.01171875,14723.21875,1634.67578125,14723.21875,1634.67578125Z" class="fil0" style="shape-rendering: geometricprecision; text-rendering: geometricprecision; fill-rule: evenodd; clip-rule: evenodd; fill: rgb(0, 0, 0); fill-opacity: 1;"/></g></g><g id="shape-5ffa6a61-14c1-8024-8007-0ad0f884138e"><g class="fills" id="fills-5ffa6a61-14c1-8024-8007-0ad0f884138e"><path d="M14841.41796875,1156.6875C14841.41796875,1156.6875,15025.8984375,1041.49609375,15121.5625,1039.61328125C15217.1953125,1037.75,15265.8828125,1099.7109375,15261.87890625,1164.4375C15257.8046875,1229.17578125,15182.5390625,1304.4296875,15070.36328125,1279.4609375C14958.2265625,1254.49609375,14841.41796875,1156.6875,14841.41796875,1156.6875ZM14951.328125,1152.046875C14951.328125,1152.046875,15061.16796875,1062.18359375,15149.18359375,1083.6640625C15256.33984375,1109.87890625,15221.7578125,1228.6484375,15144.72265625,1233.27734375C15052.4609375,1238.796875,14951.328125,1151.9609375,14951.328125,1151.9609375Z" class="fil0" style="shape-rendering: geometricprecision; text-rendering: geometricprecision; fill-rule: evenodd; clip-rule: evenodd; fill: rgb(0, 0, 0); fill-opacity: 1;"/></g></g><g id="shape-5ffa6a61-14c1-8024-8007-0ad0f884138f"><g class="fills" id="fills-5ffa6a61-14c1-8024-8007-0ad0f884138f"><path d="M14277.8671875,1251.109375C14277.8671875,1251.109375,14334.7734375,1185.578125,14401.078125,1197.6953125C14467.4296875,1209.81640625,14519.94140625,1293.0078125,14573.33203125,1293.0078125C14626.75390625,1293.0078125,14640.8203125,1259.5703125,14652.875,1243.2578125C14664.8203125,1226.94921875,14685.578125,1243.2578125,14681.22265625,1265.45703125C14676.8359375,1287.57421875,14657.609375,1335.8125,14576.1875,1337.5859375C14474.5703125,1339.7265625,14445.2421875,1204.3828125,14277.8671875,1251.1953125Z" class="fil0" style="shape-rendering: geometricprecision; text-rendering: geometricprecision; fill-rule: evenodd; clip-rule: evenodd; fill: rgb(0, 0, 0); fill-opacity: 1;"/></g></g><g id="shape-5ffa6a61-14c1-8024-8007-0ad0f8841390"><g class="fills" id="fills-5ffa6a61-14c1-8024-8007-0ad0f8841390"><path d="M13729.1484375,747.4375C13729.1484375,747.4375,14080.3359375,675.30859375,14287.859375,932.6171875L13729.1484375,747.4375Z" class="fil0" style="shape-rendering: geometricprecision; text-rendering: geometricprecision; fill-rule: evenodd; clip-rule: evenodd; fill: rgb(0, 0, 0); fill-opacity: 1;"/></g></g><g id="shape-5ffa6a61-14c1-8024-8007-0ad0f8841391"><g class="fills" id="fills-5ffa6a61-14c1-8024-8007-0ad0f8841391"><path d="M13720.76171875,906.4140625C13720.76171875,906.4140625,13872.04296875,1123.87890625,14193.2734375,1006.6328125C14193.2734375,1006.6328125,14208.078125,1006.09375,14206.82421875,1019.91796875C14205.671875,1033.640625,14117.3203125,1112.5546875,13949.875,1097.84375C13782.4375,1083.1328125,13695.72265625,938.5078125,13690.63671875,926.6484375C13685.55078125,914.7890625,13686.52734375,886.796875,13720.66015625,906.5Z" class="fil0" style="shape-rendering: geometricprecision; text-rendering: geometricprecision; fill-rule: evenodd; clip-rule: evenodd; fill: rgb(0, 0, 0); fill-opacity: 1;"/></g></g><g id="shape-5ffa6a61-14c1-8024-8007-0ad0f8841392"><g class="fills" id="fills-5ffa6a61-14c1-8024-8007-0ad0f8841392"><path d="M13721.28515625,807.703125C13721.28515625,807.703125,13842.26171875,858.8046875,13879.4609375,868.9609375L13862.4296875,945.375C13840.58984375,937.35546875,13775.50390625,906.23828125,13721.28515625,807.703125Z" class="fil0" style="shape-rendering: geometricprecision; text-rendering: geometricprecision; fill-rule: evenodd; clip-rule: evenodd; fill: rgb(0, 0, 0); fill-opacity: 1;"/></g></g><g id="shape-5ffa6a61-14c1-8024-8007-0ad0f8841393"><g class="fills" id="fills-5ffa6a61-14c1-8024-8007-0ad0f8841393"><path d="M12881.453125,906.23828125C12881.453125,906.23828125,12667.8671875,524.7109375,12890.99609375,72.671875C12890.99609375,72.671875,13164.62890625,571.69921875,13388.55859375,686.8125C13177.71484375,714,13022.78125,798.078125,12881.453125,906.23828125Z" class="fil0" style="shape-rendering: geometricprecision; text-rendering: geometricprecision; fill-rule: evenodd; clip-rule: evenodd; fill: rgb(0, 0, 0); fill-opacity: 1;"/></g></g><g id="shape-5ffa6a61-14c1-8024-8007-0ad0f8841394"><g class="fills" id="fills-5ffa6a61-14c1-8024-8007-0ad0f8841394"><path d="M12722.234375,1048.625L12813.3359375,962.8515625C12813.3359375,962.8515625,12490.5390625,479.23828125,12851.84765625,0C12851.84765625,0,12392.46875,424.3984375,12722.234375,1048.625Z" class="fil0" style="shape-rendering: geometricprecision; text-rendering: geometricprecision; fill-rule: evenodd; clip-rule: evenodd; fill: rgb(0, 0, 0); fill-opacity: 1;"/></g></g><g id="shape-5ffa6a61-14c1-8024-8007-0ad0f8841395"><g class="fills" id="fills-5ffa6a61-14c1-8024-8007-0ad0f8841395"><path d="M12723.3828125,1061.375C12723.3828125,1061.375,12356.24609375,1424.0859375,12425.89453125,1933.359375C12495.4140625,2442.5625,12787.3203125,2741.69921875,12787.3203125,2741.69921875C12787.3203125,2741.69921875,13147.59765625,3129.375,13217.2109375,3408.80078125C13217.2109375,3408.80078125,12963.1875,3102.0859375,12676.57421875,2830.68359375C12389.9609375,2559.2734375,12320.51171875,2140.31640625,12316.0546875,2050.52734375C12311.66796875,1960.8203125,12268.80078125,1396.2578125,12723.3828125,1061.375Z" class="fil0" style="shape-rendering: geometricprecision; text-rendering: geometricprecision; fill-rule: evenodd; clip-rule: evenodd; fill: rgb(0, 0, 0); fill-opacity: 1;"/></g></g><g id="shape-5ffa6a61-14c1-8024-8007-0ad0f884551c"><g class="fills" id="fills-5ffa6a61-14c1-8024-8007-0ad0f884551c"><path d="M11177.87890625,4746.84375L11376.62890625,4752.546875C11376.62890625,4752.546875,11467.62890625,4887.984375,11633.2890625,4917.21875C11633.2890625,4917.21875,11823.203125,5372.03125,12338.06640625,5639.6953125C13056.66796875,6013.359375,14101.546875,5460.484375,14001.31640625,4485.953125C13938.11328125,3870.75,13591.2109375,3641.06640625,13299.67578125,3558.859375L13295.7734375,3498.9375C13295.7734375,3498.9375,13739.45703125,3598.359375,13933.86328125,3964.71875C14948.40234375,5878.109375,11804.8125,7034.171875,11177.87890625,4746.7578125Z" class="fil0" style="shape-rendering: geometricprecision; text-rendering: geometricprecision; fill-rule: evenodd; clip-rule: evenodd; fill: rgb(0, 0, 0); fill-opacity: 1;"/></g></g><g id="shape-5ffa6a61-14c1-8024-8007-0ad0f884551d"><g class="fills" id="fills-5ffa6a61-14c1-8024-8007-0ad0f884551d"><path d="M11715.66015625,4946.1953125C12329.4296875,5098.84375,13343.90625,4673.4609375,13315.2109375,3618.9609375C13349.62109375,3629.73828125,13718.640625,3719.69921875,13869.7421875,4113.6171875C14336.7265625,5331.0234375,12803.828125,6496.7109375,11715.66015625,4946.1953125Z" class="fil0" style="shape-rendering: geometricprecision; text-rendering: geometricprecision; fill-rule: evenodd; clip-rule: evenodd; fill: rgb(0, 0, 0); fill-opacity: 1;"/></g></g><g id="shape-5ffa6a61-14c1-8024-8007-0ad0f884551e"><g class="fills" id="fills-5ffa6a61-14c1-8024-8007-0ad0f884551e"><path d="M11967.4453125,4372C12051.0703125,4465.71875,12032.5390625,4651.4296875,12175.43359375,4632.625C12318.45703125,4613.8125,12767.43359375,4376.828125,12919.8671875,3992.8125C12919.8671875,3992.8125,12945.015625,3922.1875,12941.53125,3898.6484375C12938.0859375,3875.109375,12895.3515625,3879.125,12862.47265625,3854.43359375C12829.5703125,3829.6328125,12705.203125,3669.51171875,12809.890625,3522.65625C12914.54296875,3375.90625,13146.515625,3355.03515625,13223.4453125,3540.2265625C13223.4453125,3540.2265625,13284.24609375,3884.7421875,13167.484375,4137.78125C12921.9609375,4669.796875,12159.69140625,5053.0234375,11649.171875,4841.703125C11148.3125,4634.40625,11687.9375,4058.7890625,11967.4453125,4372Z" class="fil0" style="shape-rendering: geometricprecision; text-rendering: geometricprecision; fill-rule: evenodd; clip-rule: evenodd; fill: rgb(0, 0, 0); fill-opacity: 1;"/></g></g><g id="shape-5ffa6a61-14c1-8024-8007-0ad0f884551f"><g class="fills" id="fills-5ffa6a61-14c1-8024-8007-0ad0f884551f"><path d="M9030.375,5563.015625C9030.375,5563.015625,9178.45703125,5000.765625,8764.23046875,4411.234375C8233.5546875,3655.8671875,7473.79296875,4574.6640625,8071.33984375,4968.4921875C8071.33984375,4968.4921875,8356.703125,5140.125,8511.19140625,4873.7109375L8534.734375,4799.5390625C8534.734375,4799.5390625,8593.515625,4867.203125,8598.84375,4913.03125C8604.10546875,4958.859375,8528.671875,5293.75,8213.14453125,5318.1875C7518.3046875,5371.9453125,7247.1796875,4394.65625,7929.38671875,3920.4921875C8199.1484375,3732.8984375,8703.078125,3787.4609375,9006.09375,4137.78125C9309.12109375,4488.09375,9311.203125,5121.75,9311.203125,5121.75L9030.51171875,5562.921875Z" class="fil0" style="shape-rendering: geometricprecision; text-rendering: geometricprecision; fill-rule: evenodd; clip-rule: evenodd; fill: rgb(0, 0, 0); fill-opacity: 1;"/></g></g><g id="shape-5ffa6a61-14c1-8024-8007-0ad0f8845520"><g class="fills" id="fills-5ffa6a61-14c1-8024-8007-0ad0f8845520"><path d="M9370.203125,5054L9565.3671875,4853.203125C9565.3671875,4853.203125,9517.8671875,4333.390625,9199.2734375,3946.7109375C8880.7578125,3560.015625,8227.14453125,3313.04296875,7632.6015625,3737.0078125C7038.015625,4160.953125,7195.12109375,4910.09375,7362.9765625,5141.3828125C7816.33984375,5766.03125,8669.9921875,5524.3203125,8658.39453125,5013.5234375C8658.39453125,5013.5234375,8562.65625,5263.34375,8346.35546875,5347.515625C8129.98046875,5431.6875,7745.54296875,5368.0234375,7541.84765625,4982.21875C7338.109375,4596.328125,7554.8671875,4184.5859375,7693.75,4022.046875C8287.2578125,3327.66796875,9355.85546875,3846.75390625,9370.203125,5054Z" class="fil0" style="shape-rendering: geometricprecision; text-rendering: geometricprecision; fill-rule: evenodd; clip-rule: evenodd; fill: rgb(0, 0, 0); fill-opacity: 1;"/></g></g><g id="shape-5ffa6a61-14c1-8024-8007-0ad0f8845521"><g class="fills" id="fills-5ffa6a61-14c1-8024-8007-0ad0f8845521"><path d="M15173.796875,1125.828125C15204.02734375,1154.37109375,15182.2578125,1217.84375,15130.19921875,1199.75C15111.56640625,1193.23828125,15092.93359375,1186.640625,15074.40625,1179.8671875C15056.98828125,1173.6328125,15014.3671875,1178.3515625,15022.30859375,1160.60546875C15042.82421875,1115.05078125,15130.375,1084.9921875,15173.69140625,1125.828125Z" class="fil0" style="shape-rendering: geometricprecision; text-rendering: geometricprecision; fill-rule: evenodd; clip-rule: evenodd; fill: rgb(0, 0, 0); fill-opacity: 1;"/></g></g><g id="shape-5ffa6a61-14c1-8024-8007-0ad0f8845522"><g class="fills" id="fills-5ffa6a61-14c1-8024-8007-0ad0f8845522"><path d="M13931.52734375,879.578125L14018.0703125,901.69140625C14034.16015625,905.6953125,14044.05078125,922.9921875,14040.21875,940.109375L14033.8828125,968.46484375C14030.05078125,985.5859375,14013.890625,996.203125,13997.9375,992.18359375L13911.36328125,970.078125C13895.34375,965.96875,13885.4140625,948.67578125,13889.28125,931.5546875L13895.48046875,903.20703125C13899.3125,886.08984375,13915.47265625,875.46875,13931.421875,879.4921875Z" class="fil0" style="shape-rendering: geometricprecision; text-rendering: geometricprecision; fill-rule: evenodd; clip-rule: evenodd; fill: rgb(0, 0, 0); fill-opacity: 1;"/></g></g><g id="shape-5ffa6a61-14c1-8024-8007-0ad0f8845523"><g class="fills" id="fills-5ffa6a61-14c1-8024-8007-0ad0f8845523"><path d="M14235.625,943.328125C14235.625,943.328125,14106.07421875,930.5703125,14068.6328125,921.65625L14051.609375,998.0625C14074.51953125,1001.4609375,14145.671875,1005.1171875,14235.51953125,943.234375Z" class="fil0" style="shape-rendering: geometricprecision; text-rendering: geometricprecision; fill-rule: evenodd; clip-rule: evenodd; fill: rgb(0, 0, 0); fill-opacity: 1;"/></g></g><g id="shape-5ffa6a61-14c1-8024-8007-0ad0f884c231"><g class="fills" id="fills-5ffa6a61-14c1-8024-8007-0ad0f884c231"><path d="M6844.91015625,9339.875L8452.2578125,14453.8828125L5153.2734375,14452.1796875L6844.91015625,9339.875ZM9854.42578125,8948.4609375L10041.99609375,8948.4609375L10041.99609375,8647.265625L10028.515625,8647.265625L8702.97265625,8647.265625L8702.97265625,8948.4609375L9211.671875,8948.4609375L9204.2890625,14857.578125L7189.7578125,8647.265625L6734.7890625,8647.265625L4043.5078125,16763.328125L3293.43359375,16757.9609375L3307.0859375,13677.1953125L5476.2109375,8962.71875L6011.8671875,8948.4609375L6011.8671875,8647.265625L4352.8671875,8647.265625L4352.34375,8951.2109375L4781.96484375,8952.46875L2838.39453125,13397.3984375L923.53125,8946.3125L1362.375,8946.3125L1363.5234375,8647.265625L0.01953125,8647.265625L0.01953125,8942.125L612.21875,8946.3125L2642.1875,13676.828125L2637.5234375,14010.03125L2651,16777.5L2128.8203125,16777.5L2128.8203125,17078.6796875L4766.46875,17078.6796875L4766.46875,16777.5L4380.06640625,16776.875L5034.4453125,14794.6484375L8533.0625,14794.6484375C8731.5,15426.5390625,8934.6015625,16130.8046875,9131.5390625,16763.328125L8385.609375,16760.9921875L8381.49609375,17078.6796875L10363.2265625,17078.6796875L10363.2265625,16777.5L9854.49609375,16777.5L9865.5625,14326.203125L11043.796875,14322.546875L12304.62890625,16777.3984375L11889.71875,16777.3984375L11889.3671875,17078.59375L14621.109375,17078.59375L14621.109375,8948.375L15598.4375,8948.375L15598.4375,16777.5L15103.17578125,16792.5625L15103.17578125,17078.6796875L16709.65234375,17078.6796875L16709.65234375,16791.8515625L16200.953125,16791.8515625L16200.953125,8934.09375L17179.83984375,8934.09375L17218.640625,13952.875L17218.640625,14225.171875L17231.83984375,14368.734375L17245.3203125,14497.6484375L17258.75390625,14583.6875L17272.12890625,14669.828125L17285.5,14755.8515625L17298.875,14813.28125L17312.42578125,14885.125L17325.625,14942.390625L17339.171875,14985.4375L17352.546875,15042.875L17365.9140625,15085.6796875L17379.28515625,15143.09375L17392.8359375,15185.984375L17406.2109375,15228.953125L17419.515625,15272L17432.95703125,15314.984375L17446.5390625,15358.046875L17459.80859375,15401.1171875L17473.078125,15429.640625L17486.546875,15458.359375L17500.03125,15486.96875L17513.1953125,15515.703125L17526.5,15544.3984375L17540.1484375,15572.921875L17553.5234375,15601.7265625L17566.796875,15630.1796875L17580.171875,15659.15625L17593.78125,15673.328125L17607.0859375,15701.9453125L17620.28125,15730.5625L17633.83203125,15744.921875L17647.484375,15773.7109375L17660.5078125,15802.34375L17674.0234375,15816.796875L17687.5,15831.0625L17700.8671875,15859.7734375L17714.0703125,15874.203125L17727.6171875,15902.8203125L17741.09375,15917.171875L17754.26171875,15931.53125L17767.6328125,15945.796875L17781.11328125,15974.515625L17794.59375,15988.6875L17807.8515625,16003.125L17821.2265625,16017.46875L17834.70703125,16031.84375L17847.9765625,16045.9296875L17861.3515625,16060.453125L17874.828125,16089.078125L17888.203125,16103.2578125L17901.3671875,16117.78125L17914.84765625,16132.234375L17928.38671875,16146.4140625L17941.5859375,16160.5859375L17954.9609375,16175.21875L17968.4375,16189.4765625L17981.98828125,16203.671875L17994.9765625,16218.0859375L18008.6328125,16232.6484375L18022.109375,16246.8203125L18035.37109375,16261.0625L18048.5703125,16275.515625L18062.2265625,16290.046875L18075.66796875,16304.1484375L18088.8671875,16318.5L18102.2421875,16332.953125L18115.89453125,16347.296875L18129.1640625,16361.5625L18142.35546875,16375.90625L18155.8359375,16390.34375L18169.453125,16404.625L18195.95703125,16418.9765625L18209.40234375,16433.328125L18222.87890625,16447.78125L18236.078125,16461.953125L18262.9921875,16476.40625L18276.3671875,16490.7578125L18289.7421875,16505.109375L18316.5625,16519.375L18329.76171875,16533.8125L18356.6796875,16548.171875L18370.046875,16562.3515625L18396.90234375,16576.78125L18410.2734375,16591.234375L18437.0234375,16605.5859375L18450.5,16619.765625L18476.96484375,16634.21875L18504.0625,16648.65625L18530.53125,16662.84375L18544.1796875,16677.1953125L18570.65234375,16691.6328125L18597.7421875,16706.0703125L18624.24609375,16720.0703125L18664.47265625,16734.4140625L18691.3515625,16748.953125L18717.9609375,16763.21875L18758.22265625,16777.5L18785.07421875,16791.8515625L18825.29296875,16806.375L18851.9375,16820.546875L18892.234375,16834.7265625L18945.65234375,16849.1796875L18986.0546875,16863.703125L19039.4375,16877.6328125L19092.93359375,16892.078125L19159.796875,16906.5078125L19253.51171875,16920.859375L19347.26953125,16935.03125L20190.78515625,16935.03125L20297.9453125,16920.859375L20391.625,16906.5078125L20458.765625,16892.078125L20512.33203125,16877.6328125L20565.8203125,16863.703125L20606.046875,16849.1796875L20645.99609375,16834.7265625L20686.109375,16820.546875L20712.9296875,16806.375L20753.15625,16791.8515625L20779.90234375,16777.5L20806.75,16763.21875L20833.49609375,16748.953125L20873.6171875,16734.4140625L20900.53125,16720.0703125L20927.28125,16706.0703125L20940.7578125,16691.6328125L20967.40625,16677.1953125L20994.328125,16662.84375L21020.7890625,16648.65625L21034.4375,16634.21875L21061.015625,16619.765625L21088.0078125,16605.5859375L21101.2421875,16591.234375L21128.05078125,16576.78125L21141.4921875,16562.3515625L21168.171875,16548.171875L21181.6171875,16533.8125L21208.296875,16519.375L21221.7421875,16505.109375L21235.2109375,16490.7578125L21261.78515625,16476.40625L21275.33203125,16461.953125L21288.70703125,16447.78125L21302.078125,16433.328125L21329.00390625,16418.9765625L21342.30078125,16404.625L21355.671875,16390.34375L21369.1171875,16375.90625L21382.421875,16361.5625L21409.23828125,16347.296875L21422.8203125,16332.953125L21435.91796875,16318.5L21449.45703125,16304.1484375L21462.9375,16290.046875L21476.3125,16275.515625L21489.4765625,16261.0625L21503.05859375,16246.8203125L21516.50390625,16232.6484375L21529.703125,16218.0859375L21542.97265625,16203.671875L21556.546875,16189.4765625L21569.921875,16175.21875L21583.0859375,16160.5859375L21596.56640625,16146.4140625L21610.11328125,16117.8828125L21623.41796875,16103.359375L21636.6875,16089.171875L21650.1640625,16074.9921875L21663.78515625,16060.5546875L21676.90625,16046.015625L21690.28125,16031.921875L21703.7265625,16017.578125L21717.16796875,16003.2265625L21730.47265625,15988.7734375L21743.84765625,15960.25L21757.2890625,15945.90625L21770.59375,15931.625L21784.03125,15902.921875L21797.40625,15888.46875L21810.8828125,15874.296875L21824.0859375,15845.4921875L21837.6328125,15831.140625L21851.0078125,15802.4453125L21864.3828125,15788.078125L21877.75390625,15773.8203125L21891.2265625,15745.015625L21904.6015625,15716.5625L21917.765625,15702.140625L21931.34765625,15673.5078125L21944.7890625,15644.7890625L21958.09375,15616.25L21971.26171875,15587.375L21984.9140625,15573.09375L21998.3828125,15544.578125L22011.5859375,15515.875L22024.95703125,15487.1640625L22038.578125,15444.1875L22051.87890625,15415.3984375L22065.078125,15386.8515625L22078.5234375,15343.9609375L22092.17578125,15315.15625L22105.37890625,15257.828125L22118.7421875,15214.78125L22132.1875,15171.703125L22145.734375,15114.28125L22158.76171875,15071.390625L22172.23828125,15013.984375L22185.68359375,14971.1953125L22199.05859375,14913.7578125L22212.36328125,14856.34375L22225.90234375,14784.65625L22239.34375,14727.328125L22252.546875,14655.5390625L22265.921875,14569.515625L22279.46875,14469.296875L22292.84375,14325.6484375L22306.1484375,14124.9609375L22306.1484375,13694.8359375L22279.46875,8948.6328125L22774.828125,8948.6328125L22774.828125,8647.4609375L21168.1015625,8647.4609375L21168.1015625,8676.15625L21168.1015625,8934.203125L21663.6796875,8948.546875L21636.58203125,13909.7265625L21623.3125,14153.6640625L21610.04296875,14597.953125L21596.4609375,14798.7578125L21583.015625,14913.5859375L21569.81640625,15013.8046875L21556.453125,15085.6796875L21542.90234375,15157.3515625L21529.59765625,15214.6796875L21516.43359375,15272.109375L21502.953125,15329.4375L21489.40625,15372.421875L21476.20703125,15444.1875L21462.83203125,15501.59375L21449.3515625,15544.578125L21435.8125,15587.375L21422.71875,15630.3515625L21409.171875,15659.328125L21395.69140625,15687.7734375L21382.31640625,15716.65625L21369.046875,15745.09375L21355.5703125,15773.90625L21342.1953125,15802.515625L21328.93359375,15831.234375L21315.453125,15845.59375L21302.078125,15874.3828125L21288.70703125,15902.9921875L21275.33203125,15917.359375L21261.78515625,15945.96875L21248.41015625,15960.3359375L21235.2109375,15974.6875L21221.7421875,16003.296875L21208.296875,16017.6640625L21194.921875,16032.03125L21181.6171875,16046.109375L21168.171875,16060.6484375L21154.625,16075.078125L21141.4921875,16089.2578125L21128.05078125,16103.4296875L21114.61328125,16132.40625L21101.2421875,16146.5859375L21088.0078125,16160.765625L21061.015625,16175.390625L21047.7421875,16189.671875L21034.37109375,16203.84375L21020.71875,16218.28125L21007.23828125,16232.8203125L20994.2578125,16247L20967.30078125,16261.2578125L20953.921875,16275.6953125L20940.65625,16290.234375L20927.17578125,16304.3203125L20900.4296875,16318.671875L20887.0625,16333.125L20860.140625,16347.46875L20846.765625,16361.734375L20819.91015625,16376.1015625L20793.1640625,16390.5390625L20779.796875,16404.796875L20753.05078125,16419.15625L20726.1640625,16433.5L20699.4140625,16447.953125L20672.5703125,16462.1328125L20645.8203125,16476.5859375L20619.07421875,16490.9296875L20592.1484375,16505.28125L20565.578125,16519.5625L20525.2890625,16534L20484.9921875,16548.3515625L20445.05078125,16562.5390625L20404.9296875,16576.9609375L20364.703125,16591.4140625L20311.14453125,16605.765625L20244.16796875,16619.9375L20150.3828125,16634.390625L19360.56640625,16634.390625L19266.88671875,16619.9375L19186.4375,16605.765625L19119.6796875,16591.4140625L19066.078125,16576.9609375L19025.9609375,16562.5390625L18985.84375,16548.3515625L18932.171875,16534L18905.2578125,16519.5625L18865.140625,16505.28125L18838.390625,16490.9296875L18811.46484375,16476.5859375L18784.7265625,16462.1328125L18771.25,16447.953125L18744.7109375,16433.5L18731.23046875,16419.15625L18704.48046875,16404.796875L18691.109375,16390.5390625L18677.63671875,16376.1015625L18651.09765625,16361.734375L18637.515625,16347.46875L18623.96484375,16333.125L18597.49609375,16318.671875L18583.84375,16304.3203125L18570.41015625,16290.234375L18557.27734375,16275.6953125L18543.90625,16261.2578125L18516.98046875,16247L18503.78125,16232.8203125L18490.3359375,16218.28125L18476.68359375,16203.84375L18463.4921875,16189.671875L18450.1171875,16175.390625L18436.67578125,16160.765625L18423.1953125,16146.5859375L18409.92578125,16132.40625L18396.5546875,16103.4296875L18383.00390625,16089.2578125L18369.69921875,16075.078125L18356.3359375,16060.6484375L18342.9609375,16032.03125L18329.41015625,16017.6640625L18316.2109375,16003.296875L18302.76953125,15974.6875L18289.39453125,15960.3359375L18276.01953125,15931.625L18262.6484375,15917.2734375L18249.16796875,15888.46875L18235.80078125,15874.296875L18222.6015625,15845.4921875L18209.15625,15816.8671875L18195.6796875,15802.4453125L18182.3046875,15773.8203125L18169.1015625,15745.015625L18155.453125,15716.5625L18142.0078125,15702.140625L18128.81640625,15673.5078125L18115.546875,15630.3515625L18101.89453125,15601.8984375L18088.51953125,15558.921875L18075.3203125,15529.9453125L18061.83984375,15487.1640625L18048.22265625,15444.1875L18035.0234375,15401.296875L18021.7265625,15343.875L18008.28125,15300.8046875L17994.6328125,15243.390625L17981.6015625,15185.984375L17968.08984375,15114.109375L17954.609375,15028.2421875L17941.23828125,14928.0390625L17928.0390625,14827.734375L17914.49609375,14669.828125L17901.01953125,14382.796875L17887.8515625,14038.8359375L17874.48046875,13751.984375L17861,8948.4609375L18169.1015625,8948.4609375L18169.1015625,9335.4921875L18450.2265625,9335.4921875L18450.2265625,8647.265625L13321.8984375,8647.265625L13321.8984375,9321.234375L13589.7109375,9321.234375L13589.7109375,8934.09375L13977.9453125,8934.09375L13977.9453125,16791.8515625L13094.34375,16791.8515625L11759.08203125,14315.859375C12947.24609375,14161.2578125,13436.71875,13069.90625,13602.98046875,12174.828125L13616.625,12117.421875L13630,12045.546875L13643.19921875,11945.15625L13656.64453125,11844.9375L13670.296875,11715.921875L13683.6015625,11471.9765625L13683.6015625,11343.234375L13670.296875,11113.640625L13656.64453125,10998.890625L13643.19921875,10898.40625L13630,10812.53125L13616.625,10740.6796875L13602.98046875,10669.359375L13589.7109375,10611.921875L13576.51171875,10554.5078125L13563.03515625,10497.09375L13549.3828125,10439.671875L13536.28515625,10396.609375L13522.91015625,10353.6328125L13509.46484375,10310.65625L13495.99609375,10281.859375L13482.796875,10238.875L13469.3515625,10210.171875L13455.875,10181.4609375L13442.5,10138.671875L13429.125,10109.78125L13415.75,10081.234375L13402.2734375,10052.5390625L13389.1171875,10023.90625L13375.53125,9995.28125L13362.16015625,9966.5L13348.78515625,9937.8671875L13335.41015625,9909.0859375L13321.96484375,9880.453125L13308.59375,9851.65625L13295.2890625,9823.0390625L13281.84375,9794.328125L13268.41015625,9780.0625L13255.03515625,9751.25L13241.73046875,9722.640625L13228.1796875,9708.1875L13214.703125,9679.75L13201.60546875,9665.2109375L13188.1640625,9636.6015625L13174.578125,9622.421875L13161.21484375,9593.453125L13148.05078125,9579.28125L13134.46875,9550.390625L13120.91796875,9536.109375L13107.71875,9522.0390625L13094.34375,9507.578125L13080.96875,9478.875L13067.421875,9464.703125L13040.9609375,9464.703125L13027.4140625,10439.671875L13014.0390625,11601.171875L13000.8359375,11859.375C12904.12890625,12992.2578125,12596.3359375,13542.0234375,11675.12109375,13866.578125C11513.671875,13924.359375,11334.90625,13947.171875,11166.2109375,13966.96875L10992.35546875,13981.3359375L10229.21875,13981.3359375L9854.21875,13981.3359375L9854.21875,8948.375Z" class="fil0" style="shape-rendering: geometricprecision; text-rendering: geometricprecision; fill-rule: evenodd; clip-rule: evenodd; fill: rgb(0, 0, 0); fill-opacity: 1;"/></g></g><g id="shape-5ffa6a61-14c1-8024-8007-0ad0f884c232"><g class="fills" id="fills-5ffa6a61-14c1-8024-8007-0ad0f884c232"><path d="M6826.37890625,18583.4453125L4742.12109375,18583.4453125L4742.12109375,18459.0703125L6826.37890625,18459.0703125Z" class="fil4" style="shape-rendering: geometricprecision; text-rendering: geometricprecision; fill-rule: evenodd; clip-rule: evenodd; fill: rgb(0, 0, 0); fill-opacity: 1;"/></g></g><g id="shape-5ffa6a61-14c1-8024-8007-0ad0f884c233"><g class="fills" id="fills-5ffa6a61-14c1-8024-8007-0ad0f884c233"><path d="M18032.7265625,18583.4453125L15948.53515625,18583.4453125L15948.53515625,18459.0703125L18032.7265625,18459.0703125Z" class="fil4" style="shape-rendering: geometricprecision; text-rendering: geometricprecision; fill-rule: evenodd; clip-rule: evenodd; fill: rgb(0, 0, 0); fill-opacity: 1;"/></g></g><g id="shape-5ffa6a61-14c1-8024-8007-0ad0f8857d53"><g class="fills" id="fills-5ffa6a61-14c1-8024-8007-0ad0f8857d53"><path d="M7807.3203125,18259.515625L7737.1484375,18407.8046875L7725.1328125,18400.40625C7725.375,18397.2734375,7725.5859375,18394.8671875,7725.5859375,18393.0078125C7725.5859375,18382.578125,7717.19140625,18371.2578125,7700.6171875,18359.3125C7649.4609375,18321.1328125,7589.34375,18302.1484375,7520.3203125,18302.1484375C7489.953125,18302.1484375,7463.09765625,18306.0703125,7439.73046875,18314.1015625C7422.8828125,18320.25,7409.16015625,18329.53125,7398.74609375,18341.8203125C7388.296875,18354.1171875,7382.96875,18367.4921875,7382.96875,18381.9453125C7382.96875,18405.578125,7396.34375,18421.6171875,7422.984375,18430.359375C7436.8046875,18434.640625,7466.41015625,18439.2734375,7511.7890625,18444.1875L7579.453125,18451.5703125C7619.578125,18456.21875,7652.109375,18462.46875,7676.96484375,18470.4765625C7701.8671875,18478.5078125,7723.87890625,18489.7421875,7743.0703125,18504.1875C7762.578125,18519.171875,7778.09765625,18538.953125,7789.41796875,18563.75C7800.73828125,18588.3515625,7806.51953125,18614.5625,7806.51953125,18642.46875C7806.51953125,18686.875,7793.14453125,18726.296875,7766.5,18760.609375C7742.44140625,18792.0859375,7704.8984375,18815.265625,7653.984375,18830.4375C7616.0234375,18841.75,7575.44921875,18847.46875,7532.02734375,18847.46875C7454.1875,18847.46875,7377.32421875,18827.46875,7301.4765625,18787.453125C7285.421875,18779.4296875,7275.87890625,18775.40625,7272.5703125,18775.40625C7268.9453125,18775.40625,7263.02734375,18778.7109375,7254.9453125,18785.484375L7242.4453125,18778.5390625L7306.21484375,18624.015625L7318.68359375,18630.4453125C7318.68359375,18633.109375,7318.68359375,18635.1640625,7318.68359375,18636.40625C7318.68359375,18650.3203125,7324.8046875,18663.078125,7337.203125,18674.7421875C7355.875,18692.578125,7384.74609375,18708.0078125,7423.890625,18720.9296875C7462.85546875,18733.8515625,7499.9140625,18740.296875,7534.94921875,18740.296875C7573.21875,18740.296875,7605.8515625,18733.328125,7632.77734375,18719.5C7647.859375,18711.75,7659.6875,18701.671875,7668.53515625,18688.8359375C7677.51953125,18676.09375,7681.9140625,18662.890625,7681.9140625,18648.9765625C7681.9140625,18628.0234375,7671.4609375,18613.234375,7650.43359375,18604.21875C7635.875,18598.0703125,7606.2734375,18592.4453125,7561.69140625,18587.1875L7495.38671875,18579.8046875C7450.8046875,18574.890625,7419.328125,18570.15625,7400.9765625,18565.796875C7382.6171875,18561.2421875,7364.16015625,18554.1015625,7345.76953125,18544.2109375C7319.73046875,18530.484375,7299.14453125,18509.71875,7284.2734375,18481.9765625C7270.6875,18457.109375,7263.93359375,18428.40625,7263.93359375,18396.125C7263.93359375,18342.90625,7280.96484375,18298.953125,7315.2734375,18264.078125C7360.05078125,18218.25,7427.26953125,18195.421875,7516.98046875,18195.421875C7554.484375,18195.421875,7589.625,18199.515625,7621.9765625,18207.734375C7654.53515625,18215.7421875,7695.0078125,18230.8203125,7743.69921875,18252.5703125C7760.2734375,18259.6953125,7770.4375,18263.28125,7774.265625,18263.28125C7780.22265625,18263.28125,7787.19140625,18259.625,7795.3046875,18252.5703125L7807.3203125,18259.515625ZM8354.296875,18310.265625L8354.296875,18787.90625C8354.296875,18797.515625,8356.3515625,18804.75,8360.35546875,18809.640625C8364.46484375,18814.5546875,8371.671875,18818.484375,8382.015625,18821.5859375L8382.015625,18836.390625L8198.28125,18836.390625L8198.28125,18821.5859375C8208.6875,18818.484375,8215.72265625,18814.4609375,8219.93359375,18809.640625C8223.87109375,18804.75,8225.99609375,18797.515625,8225.99609375,18787.90625L8225.99609375,18310.265625L8043.23046875,18310.265625C8034.59375,18310.265625,8027.90625,18312.328125,8023.34375,18316.5859375C8018.8203125,18320.6796875,8015.125,18328.359375,8012.19921875,18339.421875L7998.40625,18339.421875L7998.40625,18176.5234375L8012.19921875,18176.5234375C8015.3359375,18187.84375,8019.1640625,18195.6796875,8023.6953125,18199.9609375C8028.08203125,18204.25,8034.59375,18206.375,8043.23046875,18206.375L8536.6875,18206.375C8545.6953125,18206.375,8552.3828125,18204.25,8557.015625,18199.9609375C8561.578125,18195.6796875,8565.3046875,18187.84375,8568.265625,18176.5234375L8582.09375,18176.5234375L8582.09375,18339.421875L8568.265625,18339.421875C8565.3046875,18328.359375,8561.68359375,18320.6796875,8557.015625,18316.5859375C8552.48828125,18312.328125,8545.6953125,18310.265625,8536.6875,18310.265625L8354.46875,18310.265625ZM9221.21484375,18675.7265625L8953.7578125,18675.7265625L8914.19140625,18764.3671875C8908.55078125,18776.65625,8905.90234375,18786.28125,8905.90234375,18793.34375C8905.90234375,18806.890625,8915.4453125,18816.328125,8934.8828125,18821.515625L8934.8828125,18836.3203125L8740.06640625,18836.3203125L8740.06640625,18821.515625C8751.55859375,18819.0078125,8760.3984375,18814.7265625,8766.3515625,18808.578125C8772.4140625,18802.4296875,8779.2734375,18790.484375,8786.9375,18772.546875L9003.34375,18288.609375C9010.3125,18273.171875,9013.65625,18260.859375,9013.65625,18251.578125C9013.65625,18237.40625,9005.3671875,18227.3359375,8988.609375,18221.171875L8988.609375,18206.375L9197.26171875,18206.375L9197.26171875,18221.171875C9180.30078125,18226.359375,9171.8359375,18235.5390625,9171.8359375,18248.484375C9171.8359375,18257.2890625,9174.625,18267.5546875,9180.125,18278.890625L9404.3359375,18764.3671875C9413.80859375,18784.9453125,9422.16015625,18799.046875,9429.33203125,18806.609375C9436.54296875,18814.203125,9446.05078125,18819.109375,9458.20703125,18821.5859375L9458.20703125,18836.390625L9241.90625,18836.390625L9241.90625,18821.5859375C9260.921875,18818.3125,9270.359375,18808.6640625,9270.359375,18792.9765625C9270.359375,18786.546875,9267.609375,18777.0078125,9261.6875,18764.453125L9221.21484375,18675.828125ZM9184.3046875,18589.328125L9088.83984375,18364.828125L8991.921875,18589.328125L9184.3046875,18589.328125ZM9983.5859375,18572.8359375L9983.5859375,18787.90625C9983.5859375,18797.515625,9985.64453125,18804.75,9989.75390625,18809.640625C9994.00390625,18814.5546875,10001.24609375,18818.484375,10011.48828125,18821.5859375L10011.48828125,18836.390625L9826.7734375,18836.390625L9826.7734375,18821.5859375C9837.01171875,18818.484375,9844.4296875,18814.4609375,9848.71484375,18809.640625C9852.96484375,18804.75,9855.19140625,18797.515625,9855.19140625,18787.90625L9855.19140625,18572.8359375L9665.10546875,18286.2734375C9648.80859375,18261.65625,9635.89453125,18245.171875,9626.59375,18236.6015625C9617.328125,18228.140625,9606.1875,18223.0546875,9593.265625,18221.171875L9593.265625,18206.375L9825.6953125,18206.375L9825.6953125,18221.171875C9806.43359375,18224.484375,9796.71484375,18234.1171875,9796.71484375,18249.90625C9796.71484375,18255.40625,9802.6015625,18267.5546875,9814.375,18286.2734375L9920.28125,18455.328125L10029.421875,18286.2734375C10041.16015625,18268.1796875,10047.08203125,18255.859375,10047.08203125,18249.453125C10047.08203125,18242.3125,10044.3984375,18236.2578125,10039.3125,18231.171875C10034.125,18226.0859375,10027.08984375,18222.7890625,10018.171875,18221.28125L10018.171875,18206.4765625L10245.796875,18206.4765625L10245.796875,18221.28125C10232.83984375,18223.15625,10221.625,18228.2265625,10212.359375,18236.703125C10203.09375,18245.171875,10190.1484375,18261.75,10173.84765625,18286.375L9983.76171875,18572.921875ZM11448.125,18619.734375L11530.03125,18751.34375L11518.88671875,18759.734375C11510.81640625,18751.6875,11504.19921875,18747.78125,11499.04296875,18747.78125C11493.85546875,18747.78125,11479.328125,18755.171875,11455.4375,18769.96875C11406.05078125,18800.375,11364.51171875,18820.9765625,11330.69140625,18831.5859375C11297.01171875,18842.203125,11256.8984375,18847.46875,11210.19140625,18847.46875C11117.5546875,18847.46875,11041.328125,18824,10981.83984375,18776.9375C10946.703125,18749.5625,10919.1875,18715.5,10899.0234375,18674.8359375C10875.7578125,18628.5625,10864.16015625,18577.125,10864.16015625,18521.2265625C10864.16015625,18444.984375,10885.0234375,18378.640625,10926.64453125,18322.390625C10989.32421875,18237.7734375,11083.91015625,18195.421875,11210.609375,18195.421875C11257.24609375,18195.421875,11297.1171875,18200.6796875,11330.55078125,18211.203125C11363.77734375,18221.625,11405.43359375,18242.234375,11455.4375,18273C11479.2578125,18287.5234375,11493.85546875,18294.5625,11499.04296875,18294.5625C11504.19921875,18294.5625,11510.81640625,18290.640625,11518.88671875,18282.6171875L11530.03125,18291.0078125L11448.125,18422.5234375L11436.421875,18414.234375C11437.05078125,18409.3203125,11437.328125,18405.2109375,11437.328125,18401.734375C11437.328125,18392.921875,11433.7734375,18384.453125,11426.6328125,18376.6875C11419.42578125,18368.8515625,11406.6796875,18359.3828125,11388.2265625,18348.328125C11337.484375,18317.65625,11283.64453125,18302.1484375,11226.66796875,18302.1484375C11159.45703125,18302.1484375,11105.85546875,18320.0546875,11065.84375,18356.171875C11018.7578125,18398.265625,10995.2109375,18453.359375,10995.2109375,18521.296875C10995.2109375,18589.15625,11018.7578125,18644.34375,11065.84375,18686.4375C11105.78515625,18722.53125,11159.3515625,18740.46875,11226.66796875,18740.46875C11283.64453125,18740.46875,11337.484375,18725.0390625,11388.2265625,18694.28125C11406.57421875,18683.2109375,11419.42578125,18673.7734375,11426.6328125,18665.9140625C11433.84375,18658,11437.328125,18649.703125,11437.328125,18640.6875C11437.328125,18637.390625,11436.98046875,18633.296875,11436.421875,18628.734375L11448.125,18619.921875ZM11924.0234375,18732.53125L12285.484375,18732.53125C12294.390625,18732.53125,12301.1484375,18730.3046875,12305.78125,18726.09375C12310.34375,18721.640625,12314.06640625,18713.984375,12317.03125,18702.921875L12330.8203125,18702.921875L12330.8203125,18865.9921875L12317.03125,18865.9921875C12314.06640625,18854.78125,12310.4140625,18847.2890625,12305.78125,18842.828125C12301.21875,18838.546875,12294.4609375,18836.390625,12285.484375,18836.390625L11767.9296875,18836.390625L11767.9296875,18821.5859375C11778.34375,18818.484375,11785.37890625,18814.4609375,11789.59375,18809.640625C11793.53125,18804.75,11795.55078125,18797.515625,11795.55078125,18787.90625L11795.55078125,18254.96875C11795.55078125,18245.34375,11793.53125,18238.140625,11789.59375,18233.2265625C11785.484375,18228.3125,11778.34375,18224.3984375,11767.9296875,18221.28125L11767.9296875,18206.4765625L11951.6796875,18206.4765625L11951.6796875,18221.28125C11941.33203125,18224.140625,11934.19140625,18227.859375,11930.015625,18233.1171875C11926.078125,18238.140625,11924.0234375,18245.453125,11924.0234375,18255.0625L11924.0234375,18732.703125ZM12973.21875,18675.65625L12705.7578125,18675.65625L12666.16015625,18764.2578125C12660.5546875,18776.5703125,12657.8359375,18786.203125,12657.8359375,18793.234375C12657.8359375,18806.796875,12667.3828125,18816.2578125,12686.8125,18821.4140625L12686.8125,18836.2109375L12492.03515625,18836.2109375L12492.03515625,18821.4140625C12503.52734375,18818.921875,12512.3671875,18814.65625,12518.3203125,18808.4921875C12524.3828125,18802.34375,12531.27734375,18790.375,12538.94140625,18772.4765625L12755.3828125,18288.5C12762.34765625,18273.0703125,12765.65625,18260.78125,12765.65625,18251.5078125C12765.65625,18237.3359375,12757.4375,18227.25,12740.6875,18221.109375L12740.6875,18206.3046875L12949.296875,18206.3046875L12949.296875,18221.109375C12932.375,18226.2578125,12923.91015625,18235.453125,12923.91015625,18248.375C12923.91015625,18257.203125,12926.66015625,18267.46875,12932.19921875,18278.78125L13156.41015625,18764.2578125C13165.8828125,18784.875,13174.234375,18798.9453125,13181.4765625,18806.5390625C13188.6875,18814.1015625,13198.2265625,18819.0078125,13210.2421875,18821.515625L13210.2421875,18836.3203125L12993.9765625,18836.3203125L12993.9765625,18821.515625C13012.9609375,18818.2109375,13022.3984375,18808.578125,13022.3984375,18792.890625C13022.3984375,18786.4765625,13019.64453125,18776.9375,13013.7578125,18764.3671875L12973.2890625,18675.7265625ZM12936.30859375,18589.2421875L12840.80859375,18364.75L12743.890625,18589.2421875L12936.30859375,18589.2421875ZM13957.12109375,18259.34375L13886.94921875,18407.6171875L13874.8984375,18400.234375C13875.17578125,18397.09375,13875.3515625,18394.6953125,13875.3515625,18392.8125C13875.3515625,18382.40625,13866.9921875,18371.078125,13850.2734375,18359.140625C13799.1171875,18320.9609375,13739.109375,18301.9765625,13670.12109375,18301.9765625C13639.71484375,18301.9765625,13612.8984375,18305.875,13589.50390625,18313.921875C13572.578125,18320.0546875,13558.921875,18329.3359375,13548.5078125,18341.6484375C13538.09765625,18353.9375,13532.734375,18367.3203125,13532.734375,18381.7734375C13532.734375,18405.390625,13546.10546875,18421.4375,13572.78515625,18430.1875C13586.578125,18434.46875,13616.171875,18439.1015625,13661.5546875,18444.015625L13729.21875,18451.390625C13769.33984375,18456.03125,13801.87109375,18462.28125,13826.7734375,18470.3046875C13851.6328125,18478.3125,13873.6796875,18489.5625,13892.8359375,18504.015625C13912.33984375,18518.9921875,13927.87109375,18538.78125,13939.19140625,18563.578125C13950.5,18588.1640625,13956.21484375,18614.390625,13956.21484375,18642.2890625C13956.21484375,18686.6953125,13942.84765625,18726.09375,13916.16796875,18760.4296875C13892.10546875,18791.9140625,13854.59375,18815.09375,13803.6796875,18830.2578125C13765.68359375,18841.578125,13725.10546875,18847.2890625,13681.71875,18847.2890625C13603.88671875,18847.2890625,13527.08984375,18827.296875,13451.171875,18787.28125C13435.11328125,18779.234375,13425.57421875,18775.234375,13422.3359375,18775.234375C13418.7109375,18775.234375,13412.828125,18778.5390625,13404.7109375,18785.3125L13392.2421875,18778.3671875L13455.9765625,18623.828125L13468.4453125,18630.25C13468.4453125,18632.9375,13468.4453125,18634.9765625,13468.4453125,18636.234375C13468.4453125,18650.140625,13474.61328125,18662.890625,13486.9765625,18674.578125C13505.63671875,18692.40625,13534.5078125,18707.8359375,13573.65625,18720.7578125C13612.62109375,18733.6796875,13649.6796875,18740.1015625,13684.75,18740.1015625C13722.984375,18740.1015625,13755.6171875,18733.15625,13782.5390625,18719.328125C13797.62109375,18711.5625,13809.4609375,18701.5,13818.30859375,18688.65625C13827.296875,18675.8984375,13831.68359375,18662.71875,13831.68359375,18648.796875C13831.68359375,18627.8515625,13821.234375,18613.046875,13800.19921875,18604.046875C13785.5703125,18597.875,13756.0703125,18592.2734375,13711.5,18587.015625L13645.1484375,18579.609375C13600.578125,18574.71875,13569.09375,18569.984375,13550.73828125,18565.609375C13532.3828125,18561.0625,13513.92578125,18553.9296875,13495.546875,18544.0390625C13469.52734375,18530.3125,13448.9453125,18509.515625,13434.03515625,18481.796875C13420.48828125,18456.9296875,13413.6953125,18428.234375,13413.6953125,18395.9453125C13413.6953125,18342.7109375,13430.7265625,18298.7578125,13465.0703125,18263.890625C13509.81640625,18218.078125,13577.03515625,18195.2265625,13666.8125,18195.2265625C13704.359375,18195.2265625,13739.45703125,18199.34375,13771.84765625,18207.5625C13804.37890625,18215.5625,13844.83984375,18230.6484375,13893.53125,18252.375C13910.109375,18259.515625,13920.27734375,18263.0859375,13924.109375,18263.0859375C13930.1015625,18263.0859375,13937.06640625,18259.4296875,13945.13671875,18252.375L13957.1875,18259.34375ZM14742.375,18259.34375L14672.203125,18407.6171875L14660.1875,18400.234375C14660.46875,18397.09375,14660.60546875,18394.6953125,14660.60546875,18392.8125C14660.60546875,18382.40625,14652.24609375,18371.078125,14635.66796875,18359.140625C14584.4765625,18320.9609375,14524.3984375,18301.9765625,14455.4140625,18301.9765625C14424.97265625,18301.9765625,14398.15625,18305.875,14374.79296875,18313.921875C14357.9375,18320.0546875,14344.21484375,18329.3359375,14333.80078125,18341.6484375C14323.3515625,18353.9375,14318.08984375,18367.3203125,14318.08984375,18381.7734375C14318.08984375,18405.390625,14331.46875,18421.4375,14358.109375,18430.1875C14371.9375,18434.46875,14401.53125,18439.1015625,14446.9140625,18444.015625L14514.578125,18451.390625C14554.8046875,18456.03125,14587.265625,18462.28125,14612.125,18470.3046875C14636.9921875,18478.3125,14659.00390625,18489.5625,14678.1953125,18504.015625C14697.8046875,18518.9921875,14713.23046875,18538.78125,14724.54296875,18563.578125C14735.859375,18588.1640625,14741.67578125,18614.390625,14741.67578125,18642.2890625C14741.67578125,18686.6953125,14728.3046875,18726.09375,14701.6328125,18760.4296875C14677.56640625,18791.9140625,14640.0234375,18815.09375,14589.1484375,18830.2578125C14551.1484375,18841.578125,14510.5703125,18847.2890625,14467.1484375,18847.2890625C14389.30859375,18847.2890625,14312.484375,18827.296875,14236.6015625,18787.28125C14220.546875,18779.234375,14211.00390625,18775.234375,14207.73046875,18775.234375C14204.0703125,18775.234375,14198.1875,18778.5390625,14190.0703125,18785.3125L14177.56640625,18778.3671875L14241.33984375,18623.828125L14253.8046875,18630.25C14253.8046875,18632.9375,14253.8046875,18634.9765625,14253.8046875,18636.234375C14253.8046875,18650.140625,14259.97265625,18662.890625,14272.37109375,18674.578125C14290.99609375,18692.40625,14319.8671875,18707.8359375,14359.015625,18720.7578125C14397.98046875,18733.6796875,14435.07421875,18740.1015625,14470.109375,18740.1015625C14508.34375,18740.1015625,14541.08203125,18733.15625,14567.96875,18719.328125C14582.98046875,18711.5625,14594.9296875,18701.5,14603.73828125,18688.65625C14612.75,18675.8984375,14617.10546875,18662.71875,14617.10546875,18648.796875C14617.10546875,18627.8515625,14606.69140625,18613.046875,14585.6640625,18604.046875C14571.10546875,18597.875,14541.5,18592.2734375,14496.91796875,18587.015625L14430.6171875,18579.609375C14386.03515625,18574.71875,14354.55859375,18569.984375,14336.16796875,18565.609375C14317.8125,18561.0625,14299.390625,18553.9296875,14281,18544.0390625C14254.95703125,18530.3125,14234.375,18509.515625,14219.5,18481.796875C14205.91796875,18456.9296875,14199.16015625,18428.234375,14199.16015625,18395.9453125C14199.16015625,18342.7109375,14216.19140625,18298.7578125,14250.5,18263.890625C14295.28125,18218.078125,14362.5,18195.2265625,14452.17578125,18195.2265625C14489.71875,18195.2265625,14524.8515625,18199.34375,14557.20703125,18207.5625C14589.73828125,18215.5625,14630.234375,18230.6484375,14678.890625,18252.375C14695.50390625,18259.515625,14705.640625,18263.0859375,14709.5078125,18263.0859375C14715.4609375,18263.0859375,14722.3828125,18259.4296875,14730.53125,18252.375L14742.546875,18259.34375ZM15306.1015625,18572.6640625L15306.1015625,18787.71875C15306.1015625,18797.34375,15308.15625,18804.578125,15312.265625,18809.46875C15316.515625,18814.375,15323.76171875,18818.3125,15334,18821.4140625L15334,18836.2109375L15149.28515625,18836.2109375L15149.28515625,18821.4140625C15159.515625,18818.3125,15166.93359375,18814.2890625,15171.21875,18809.46875C15175.46875,18804.578125,15177.69921875,18797.34375,15177.69921875,18787.71875L15177.69921875,18572.6640625L14987.62109375,18286.1015625C14971.3203125,18261.4921875,14958.3984375,18245,14949.1015625,18236.4296875C14939.8359375,18227.96875,14928.69921875,18222.875,14915.77734375,18221L14915.77734375,18206.1953125L15148.20703125,18206.1953125L15148.20703125,18221C15128.9453125,18224.3046875,15119.2265625,18233.9375,15119.2265625,18249.71875C15119.2265625,18255.234375,15125.1171875,18267.375,15136.88671875,18286.1015625L15242.79296875,18455.15625L15351.9375,18286.1015625C15363.67578125,18267.984375,15369.59375,18255.6875,15369.59375,18249.28125C15369.59375,18242.140625,15366.9140625,18236.078125,15361.828125,18231C15356.640625,18225.9140625,15349.6015625,18222.6015625,15340.6875,18221.109375L15340.6875,18206.3046875L15568.30859375,18206.3046875L15568.30859375,18221.109375C15555.3515625,18222.96875,15544.140625,18228.0546875,15534.875,18236.53125C15525.609375,18245,15512.65234375,18261.578125,15496.35546875,18286.1875L15306.27734375,18572.75Z" class="fil4" style="shape-rendering: geometricprecision; text-rendering: geometricprecision; fill-rule: evenodd; clip-rule: evenodd; fill: rgb(0, 0, 0); fill-opacity: 1;"/></g></g><g id="shape-5ffa6a61-14c1-8024-8007-0ad0f8857d54"><g class="fills" id="fills-5ffa6a61-14c1-8024-8007-0ad0f8857d54"><path d="M23293.42578125,7913.7421875C23522.40625,7913.7421875,23707.9921875,8099.296875,23707.9921875,8328.34375C23707.9921875,8557.296875,23522.40625,8742.9375,23293.42578125,8742.9375C23064.48046875,8742.9375,22878.859375,8557.296875,22878.859375,8328.34375C22878.859375,8099.375,23064.375,7913.7421875,23293.42578125,7913.7421875Z" class="fil3 str1" style="shape-rendering: geometricprecision; text-rendering: geometricprecision; fill-rule: evenodd; clip-rule: evenodd; fill: rgb(37, 56, 77); fill-opacity: 0;"/></g><g class="strokes" id="strokes-038be71d-c378-803b-8007-0ae47c27577e-5ffa6a61-14c1-8024-8007-0ad0f8857d54" style="shape-rendering: geometricprecision; text-rendering: geometricprecision; fill-rule: evenodd; clip-rule: evenodd;"><g class="inner-stroke-shape"><defs><clipPath id="inner-stroke-render-29-5ffa6a61-14c1-8024-8007-0ad0f8857d54-0"><use href="#stroke-shape-render-29-5ffa6a61-14c1-8024-8007-0ad0f8857d54-0"/></clipPath><path d="M23293.42578125,7913.7421875C23522.40625,7913.7421875,23707.9921875,8099.296875,23707.9921875,8328.34375C23707.9921875,8557.296875,23522.40625,8742.9375,23293.42578125,8742.9375C23064.48046875,8742.9375,22878.859375,8557.296875,22878.859375,8328.34375C22878.859375,8099.375,23064.375,7913.7421875,23293.42578125,7913.7421875Z" id="stroke-shape-render-29-5ffa6a61-14c1-8024-8007-0ad0f8857d54-0" style="fill: none; stroke-width: 80; stroke: rgb(0, 0, 0); stroke-opacity: 1;"/></defs><use href="#stroke-shape-render-29-5ffa6a61-14c1-8024-8007-0ad0f8857d54-0" clip-path="url('#inner-stroke-render-29-5ffa6a61-14c1-8024-8007-0ad0f8857d54-0')"/></g></g></g><g id="shape-5ffa6a61-14c1-8024-8007-0ad0f8857d55"><g class="fills" id="fills-5ffa6a61-14c1-8024-8007-0ad0f8857d55"><path d="M23456.6484375,8406.984375L23531.11328125,8425.796875C23515.61328125,8486.875,23487.61328125,8533.234375,23447.2109375,8565.328125C23406.8515625,8597.3359375,23357.46875,8613.390625,23298.96484375,8613.390625C23238.60546875,8613.390625,23189.40234375,8601.078125,23151.5078125,8576.390625C23113.6171875,8551.78125,23084.8203125,8516.1171875,23065.10546875,8469.484375C23045.4296875,8422.671875,23035.3984375,8372.6640625,23035.3984375,8318.984375C23035.3984375,8260.578125,23046.47265625,8209.578125,23068.83203125,8166.078125C23091.125,8122.46875,23122.94921875,8089.4765625,23164.15234375,8066.828125C23205.3515625,8044.1875,23250.7265625,8032.953125,23300.11328125,8032.953125C23356.3515625,8032.953125,23403.546875,8047.2265625,23441.671875,8075.8359375C23480.0546875,8104.4609375,23506.59375,8144.5859375,23521.671875,8196.3828125L23448.7421875,8213.6875C23435.82421875,8172.9375,23416.8125,8143.0703125,23392.12109375,8124.5234375C23367.4296875,8105.890625,23336.2890625,8096.609375,23298.7890625,8096.609375C23255.8125,8096.609375,23219.6953125,8106.953125,23190.828125,8127.5546875C23161.921875,8148.1484375,23141.51171875,8176.0546875,23129.9140625,8210.828125C23118.140625,8245.78125,23112.2890625,8281.703125,23112.2890625,8318.625C23112.2890625,8366.3203125,23119.21875,8408.046875,23133.046875,8443.625C23146.9453125,8479.2890625,23168.43359375,8505.859375,23197.76171875,8523.515625C23227.0078125,8541.15625,23258.66796875,8549.8984375,23292.8359375,8549.8984375C23334.33984375,8549.8984375,23369.37890625,8537.8671875,23398.11328125,8513.9765625C23426.9140625,8489.90625,23446.33984375,8454.328125,23456.58203125,8407.0703125L23456.6484375,8406.984375" class="fil4" style="shape-rendering: geometricprecision; text-rendering: geometricprecision; fill-rule: evenodd; clip-rule: evenodd; fill: rgb(0, 0, 0); fill-opacity: 1;"/></g></g></g></svg>