<svg width="38886" xmlns="http://www.w3.org/2000/svg" height="34365" id="screenshot-c0bb1fc0-fc87-8057-8007-0ae0b13927b6" viewBox="0 0 38886 34365" xmlns:xlink="http://www.w3.org/1999/xlink" fill="none" version="1.1"><g id="shape-c0bb1fc0-fc87-8057-8007-0ae0b13927b6" rx="0" ry="0"><g id="shape-5ffa6a61-14c1-8024-8007-0ad0fd322d02"><defs><clipPath id="frame-clip-5ffa6a61-14c1-8024-8007-0ad0fd322d02-render-2" class="frame-clip frame-clip-def"><rect rx="0" ry="0" x="0" y="0" width="38886" height="34365" transform="matrix(1.000000, 0.000000, 0.000000, 1.000000, 0.000000, 0.000000)"/></clipPath></defs><g class="frame-container-wrapper"><g class="frame-container-blur"><g class="frame-container-shadows"><g clip-path="url(#frame-clip-5ffa6a61-14c1-8024-8007-0ad0fd322d02-render-2)" fill="none"><g class="fills" id="fills-5ffa6a61-14c1-8024-8007-0ad0fd322d02"><rect width="38886" height="34365" class="frame-background" x="0" transform="matrix(1.000000, 0.000000, 0.000000, 1.000000, 0.000000, 0.000000)" style="fill: rgb(37, 56, 77); fill-opacity: 1;" ry="0" rx="0" y="0"/></g><g class="frame-children"><g id="shape-c0bb1fc0-fc87-8057-8007-0ae0a990d635" rx="0" ry="0"><g id="shape-c0bb1fc0-fc87-8057-8007-0ae091781af8" rx="0" ry="0"><g id="shape-5ffa6a61-14c1-8024-8007-0ad0f88391cd" rx="0" ry="0" style="fill: rgb(0, 0, 0);"><g id="shape-5ffa6a61-14c1-8024-8007-0ad0f88391ce"><g class="fills" id="fills-5ffa6a61-14c1-8024-8007-0ad0f88391ce"><path d="M22084.8125,9195.69921875C22089.896484375,9202.744140625,23893.39453125,11652.525390625,20767.90625,11451.11328125L20758.8515625,11311.9375C23694.15625,11501.1328125,22071.54296875,9256.326171875,22066.806640625,9249.822265625L22084.7421875,9195.7958984375Z" class="fil4" style="shape-rendering: geometricprecision; text-rendering: geometricprecision; fill-rule: evenodd; clip-rule: evenodd; fill: rgb(242, 228, 202); fill-opacity: 1;"/></g></g><g id="shape-5ffa6a61-14c1-8024-8007-0ad0f883f751"><g class="fills" id="fills-5ffa6a61-14c1-8024-8007-0ad0f883f751"><path d="M21293.390625,8538.3193359375L21177.6640625,8594.931640625C21177.6640625,8594.931640625,21190.865234375,8879.9873046875,21488.458984375,8934.9013671875C21786.1484375,8989.82421875,21855.517578125,8731.35546875,21855.517578125,8731.35546875L22401.587890625,8967.3525390625C22401.587890625,8967.3525390625,22575.09375,9134.982421875,22715.166015625,9096.1064453125C22855.126953125,9057.31640625,22833.9140625,8981.00390625,22833.9140625,8981.00390625C22833.9140625,8981.00390625,22831.416015625,8915.3720703125,22870.20703125,8935.4326171875C22908.970703125,8955.4931640625,22895.14453125,9049.2109375,22860.2109375,9097.4375C22825.146484375,9145.673828125,22796.44921875,9133.640625,22787.740234375,9157.716796875C22778.96484375,9181.794921875,22696.4296875,9224.67578125,22595.154296875,9219.330078125C22493.8828125,9213.9765625,22436.345703125,9181.794921875,22410.05078125,9153.7021484375C22383.833984375,9125.61328125,22344.96484375,9092.091796875,22323.75390625,9153.7021484375C22302.474609375,9215.31640625,22288.71484375,9284.9541015625,22376.275390625,9333.095703125C22463.720703125,9381.3310546875,22526.3359375,9402.728515625,22600.03125,9375.9755859375C22673.859375,9349.228515625,22698.83203125,9329.080078125,22710.08203125,9338.537109375C22721.2890625,9347.896484375,22719.521484375,9368.044921875,22697.0546875,9389.4423828125C22674.48828125,9410.8427734375,22648.296875,9396.12890625,22639.5546875,9443.033203125C22630.8125,9489.9287109375,22644.53515625,9518.015625,22620.81640625,9526.03515625C22597.037109375,9534.068359375,22469.5390625,9532.7265625,22469.5390625,9532.7265625C22469.5390625,9532.7265625,22397.060546875,9443.033203125,22360.77734375,9418.9580078125C22324.484375,9394.892578125,22205.728515625,9349.31640625,22151.9609375,9331.9365234375C22098.185546875,9314.548828125,21912.951171875,9231.0068359375,21742.54296875,9308.9326171875C21572.177734375,9386.8603515625,21433.2890625,9447.046875,21329.16015625,9471.9130859375C20799.04296875,9598.0810546875,20801.271484375,9130.4365234375,21023.251953125,9043.32421875C21190.2734375,8977.783203125,21167.154296875,9138.900390625,21145.59765625,9176.169921875C21124.107421875,9213.3486328125,21150.576171875,9273.53125,21220.015625,9208.0029296875C21289.45703125,9142.470703125,21347.2734375,8881.048828125,21082.904296875,8809.8095703125C20818.58203125,8738.4775390625,20618.857421875,9031.7353515625,20605.587890625,9206.9404296875C20592.212890625,9382.044921875,20668.33984375,9669.234375,21006.8828125,9695.625C21006.8828125,9695.625,20993.857421875,9853.703125,21166.6328125,9980.1328125C21339.400390625,10106.6611328125,21694.87109375,10329.6533203125,21860.880859375,10448.13671875C22421.927734375,10848.7421875,22817.13671875,11532.244140625,22682.25390625,12274.16015625C22585.787109375,12804.927734375,22555.8359375,12890.435546875,22555.8359375,12890.435546875C22555.8359375,12890.435546875,22226.486328125,12801.3671875,22076.80078125,12569.8193359375C22076.80078125,12569.8193359375,22005.306640625,12497.15234375,22006.734375,12561.87890625C22008.162109375,12626.6064453125,22179.328125,12792.453125,22361.92578125,12871.802734375C22544.515625,12951.244140625,23069.546875,13126.44921875,23177.927734375,13154.97265625C23286.375,13183.513671875,23305.35546875,13173.34375,23305.35546875,13242.5341796875C23305.35546875,13311.814453125,23287.87109375,13392.763671875,23272.625,13435.025390625C23257.30078125,13477.203125,22826.15625,14193.2587890625,22650.07421875,14389.8525390625C22473.99609375,14586.5419921875,22153.84375,15096.1923828125,21661.958984375,15062.2177734375C21170.115234375,15028.1611328125,21280.828125,14555.962890625,21308.47265625,14477.861328125C21308.47265625,14477.861328125,21365.34765625,14318.890625,21548.005859375,14314.25C21730.69921875,14309.60546875,21805.51171875,14477.4951171875,21805.51171875,14477.4951171875C21805.51171875,14477.4951171875,21874.53515625,14697.73828125,21714.828125,14750.15234375C21555.181640625,14802.4990234375,21504.79296875,14685.42578125,21497.654296875,14657.6982421875C21490.443359375,14629.9658203125,21473.23828125,14520.646484375,21596.90625,14509.869140625C21720.5390625,14499.072265625,21675.958984375,14634.607421875,21660.1796875,14646.9033203125C21644.3359375,14659.2138671875,21588.861328125,14685.5126953125,21562.390625,14606.8759765625C21562.390625,14606.8759765625,21517.810546875,14633.091796875,21540.796875,14665.447265625C21563.818359375,14697.826171875,21677.490234375,14754.7939453125,21722.0703125,14637.724609375C21766.64453125,14520.646484375,21653.04296875,14394.310546875,21535.015625,14455.9208984375C21417.060546875,14517.53125,21419.916015625,14645.3876953125,21460.212890625,14716.283203125C21500.509765625,14787.0703125,21627.0234375,14882.6455078125,21721.966796875,14820.94921875C21816.9375,14759.33984375,21796.76953125,14771.6416015625,21877.35546875,14779.3994140625C21957.974609375,14787.0703125,22081.607421875,14730.09375,22190.92578125,14602.236328125C22300.24609375,14474.37890625,22491.55078125,14095.3583984375,22564.47265625,13922.9228515625C22637.498046875,13750.4873046875,22725.46875,13486.48046875,22727.974609375,13448.765625C22730.482421875,13411.048828125,22712.9375,13389.470703125,22690.30078125,13413.720703125C22667.625,13437.96875,22292.72265625,13551.119140625,21988.345703125,13497.267578125C21683.900390625,13443.412109375,21613.484375,13332.9462890625,21593.3203125,13365.21484375C21573.15234375,13397.5869140625,21583.25390625,13446.0830078125,21668.75,13483.806640625C21754.314453125,13521.525390625,22061.19921875,13580.8154296875,22116.576171875,13580.8154296875C22171.9453125,13580.8154296875,22166.9375,13580.8154296875,22146.806640625,13610.4111328125C22126.640625,13640.099609375,21822.71875,13995.7685546875,21469.755859375,14169.271484375C21116.79296875,14342.7822265625,20643.576171875,14678.7353515625,19545.515625,14479.193359375C19545.515625,14479.193359375,19522.703125,14482.580078125,19516.9296875,14517.9833984375C19511.115234375,14553.4638671875,19431.6015625,15213.07421875,18799.234375,15552.869140625C18799.234375,15552.869140625,18567.884765625,15647.64453125,18507.4296875,15660.04296875C18446.966796875,15672.345703125,18446.966796875,15712.3759765625,18478.626953125,15735.5634765625C18510.2890625,15758.654296875,18921.71875,16013.8310546875,19082.365234375,16538.37109375C19243.125,17062.98828125,19350.98046875,17576.7265625,19321.02734375,17911.703125C19291.083984375,18246.68359375,19026.056640625,18532.802734375,18684.55078125,18410.921875C18343.1875,18289.03515625,18400.09765625,17935.25,18445.9921875,17843.859375C18491.896484375,17752.470703125,18625.45703125,17590.7265625,18863.9375,17712.611328125C18863.9375,17712.611328125,18984.296875,17799.27734375,18955.849609375,17953.970703125C18927.4296875,18108.662109375,18778.650390625,18160.20703125,18669.228515625,18087.541015625C18669.228515625,18087.541015625,18598.8828125,18017.1875,18623.33203125,17932.48046875C18647.740234375,17847.77734375,18788.787109375,17846.26171875,18806.09765625,17918.5625C18823.37109375,17990.97265625,18742.78515625,18009.51953125,18715.41015625,17986.431640625C18688.03515625,17963.33984375,18666.474609375,18015.671875,18695.279296875,18038.76171875C18724.048828125,18061.853515625,18867.94140625,18097.34375,18873.65625,17969.3984375C18879.47265625,17841.54296875,18703.91796875,17744.443359375,18621.904296875,17855.3515625C18539.8828125,17966.283203125,18544.234375,18108.03515625,18698.203125,18181.95703125C18852.20703125,18255.96484375,18959.890625,18141.662109375,18982.6953125,18084.59765625C19005.505859375,18027.53125,18984.576171875,17974.5703125,19028.35546875,17952.1953125C19072.134765625,17929.71484375,19113.955078125,17925.708984375,19125.44921875,17866.6015625C19136.87109375,17807.48046875,19146.9375,17522.703125,19098.771484375,17346.962890625C19050.64453125,17171.232421875,18702.767578125,16226.2197265625,17690.865234375,15951.77734375L17368.65625,15862.5224609375L17302.943359375,15679.7373046875C17302.943359375,15679.7373046875,17300.8203125,15661.0185546875,17368.65625,15670.3876953125C17436.494140625,15679.7373046875,18041.947265625,15694.9052734375,18026.62109375,15172.333984375C18026.62109375,15172.333984375,17327.80078125,15134.6240234375,17048.224609375,14599.9189453125C16278.6416015625,13128.408203125,18247.453125,12408.076171875,18456.3359375,13576.8876953125C18599.857421875,14380.134765625,17676.41015625,14531.7919921875,17514.265625,14054.5234375C17381.056640625,13662.3896484375,17691.38671875,13524.73046875,17691.38671875,13524.73046875C17691.38671875,13524.73046875,17973.759765625,13400.5283203125,18056.921875,13670.0615234375C18169.8984375,14035.9775390625,17721.060546875,14100.443359375,17724.30078125,13850.5205078125C17726.42578125,13674.7001953125,17849.013671875,13705.193359375,17849.013671875,13705.193359375C17849.013671875,13705.193359375,17864.3359375,13639.5703125,17833.6875,13639.5703125C17803.00390625,13639.5703125,17671.673828125,13637.251953125,17647.607421875,13822.3447265625C17612.751953125,14090.54296875,18004.609375,14208.8603515625,18144.47265625,13878.6044921875C18218.927734375,13702.7802734375,18063.5390625,13384.1259765625,17778.9375,13409.888671875C17494.34375,13435.654296875,17360.888671875,13773.125,17420.02734375,13977.0498046875C17479.125,14180.9482421875,17606.06640625,14415.36328125,17969.37109375,14403.591796875C18833.26171875,14375.7646484375,18735.6796875,12749.91796875,17631.83984375,12928.779296875C16601.4765625,13095.779296875,16547.6328125,14500.8662109375,17502.04296875,15096.7314453125C15700.494140625,14636.296875,16480.072265625,11465.1123046875,18680.65234375,12532.1884765625C18680.65234375,12532.1884765625,18886.40234375,13196.0869140625,19269.421875,13535.603515625C19652.43359375,13875.04296875,20114.78125,13955.1953125,20581.51953125,13856.2275390625C21048.22265625,13757.171875,21376.4921875,13456.33984375,21585.482421875,13105.84375C21982.041015625,12440.794921875,21654.64453125,11380.142578125,20843.90234375,11231.0625C20843.90234375,11231.0625,20777.03125,10945.0361328125,20585.978515625,10715.6220703125C20394.92578125,10486.212890625,20018.48828125,10142.501953125,20041.40625,9560.275390625C20064.427734375,8978.0625,20674.57421875,8368.4599609375,21293.1484375,8538.3193359375ZM21751.5625,9073.3720703125C21751.5625,9073.3720703125,21857.29296875,8906.4560546875,21983.748046875,8956.66015625C22110.166015625,9006.85546875,22115.390625,9061.513671875,22153.84375,9042.166015625C22192.25,9022.8193359375,22184.8671875,8961.1181640625,22224.08203125,8970.478515625C22263.3359375,8979.7509765625,22308.32421875,9012.55859375,22271.345703125,9095.3916015625C22193.15625,9270.240234375,22032.16015625,9129.453125,21953.515625,9089.236328125C21893.759765625,9058.658203125,21818.189453125,9094.3212890625,21790.8828125,9102.5224609375C21763.61328125,9110.6376953125,21716.814453125,9131.681640625,21751.66796875,9073.3720703125Z" class="fil0" style="shape-rendering: geometricprecision; text-rendering: geometricprecision; fill-rule: evenodd; clip-rule: evenodd; fill: rgb(242, 228, 202); fill-opacity: 1;"/></g></g><g id="shape-5ffa6a61-14c1-8024-8007-0ad0f883f752"><g class="fills" id="fills-5ffa6a61-14c1-8024-8007-0ad0f883f752"><path d="M21219.14453125,9069.0888671875C21219.14453125,9069.0888671875,21118.39453125,8921.3447265625,20945.453125,9001.0654296875C20777.728515625,9078.369140625,20751.953125,9494.029296875,21089.974609375,9554.388671875C21451.400390625,9618.85546875,21630.228515625,9323.3779296875,21856.21484375,9352.798828125C21698.248046875,9435.544921875,21507.021484375,9599.5087890625,21342.2578125,9639.08984375C20532.830078125,9834.0947265625,20535.51171875,8849.669921875,21020.046875,8882.390625C21200.9296875,8894.59765625,21219.14453125,9069.0888671875,21219.14453125,9069.0888671875Z" class="fil0" style="shape-rendering: geometricprecision; text-rendering: geometricprecision; fill-rule: evenodd; clip-rule: evenodd; fill: rgb(242, 228, 202); fill-opacity: 1;"/></g></g><g id="shape-5ffa6a61-14c1-8024-8007-0ad0f883f753"><g class="fills" id="fills-5ffa6a61-14c1-8024-8007-0ad0f883f753"><path d="M21054.390625,9700.98046875C21055.015625,9703.025390625,21129.087890625,9706.9521484375,21126.859375,9704.8974609375C21125.8828125,9704.095703125,21145.59765625,9764.283203125,21152.283203125,9778.00390625C21168.583984375,9811.53515625,21200.408203125,9903.458984375,21509.13671875,10053.513671875C21817.912109375,10203.5732421875,22279.0078125,10525.1796875,22465.4296875,10748.9697265625C22651.77734375,10972.759765625,22987.15234375,11521.193359375,22714.0859375,12549.3935546875L22652.544921875,12769.3525390625C22641.783203125,12808.052734375,22627.330078125,12829.2734375,22637.568359375,12766.861328125C22685.83984375,12476.2900390625,22767.400390625,12244.728515625,22757.30078125,11931.2373046875C22739.74609375,11385.314453125,22419.873046875,10819.669921875,22012.23828125,10502.802734375C21732.65234375,10285.421875,21402.53515625,10083.1171875,21402.53515625,10083.1171875C21402.53515625,10083.1171875,21233.669921875,10001.8984375,21131.142578125,9860.572265625C21104.39453125,9823.7509765625,21068.103515625,9745.6455078125,21054.458984375,9700.8837890625Z" class="fil0" style="shape-rendering: geometricprecision; text-rendering: geometricprecision; fill-rule: evenodd; clip-rule: evenodd; fill: rgb(242, 228, 202); fill-opacity: 1;"/></g></g><g id="shape-5ffa6a61-14c1-8024-8007-0ad0f884138b"><g class="fills" id="fills-5ffa6a61-14c1-8024-8007-0ad0f884138b"><path d="M22640.529296875,12915.75390625L22764.091796875,12501.0703125C22764.091796875,12501.0703125,22764.091796875,12449.5390625,22799.130859375,12468.2626953125C22834.16015625,12487.078125,23253.71484375,12542.888671875,23310.615234375,12535.8447265625C23367.59375,12528.802734375,23371.94921875,12498.310546875,23428.814453125,12575.70703125C23485.79296875,12653.0927734375,24361.109375,13705.3681640625,24361.109375,13705.3681640625C24361.109375,13705.3681640625,24646.955078125,14050.1513671875,24666.912109375,14292.6708984375C24686.869140625,14535.1875,24555.64453125,14638.1689453125,24555.64453125,14638.1689453125C24555.64453125,14638.1689453125,24395.71875,14807.392578125,24130.908203125,14691.224609375C23866.228515625,14574.9521484375,23984.25390625,14289.45703125,23984.25390625,14289.45703125C23984.25390625,14289.45703125,24060.484375,14093.6689453125,24235.6640625,14118.091796875C24410.869140625,14142.611328125,24431.80078125,14320.0400390625,24416.546875,14360.7890625C24401.326171875,14401.5380859375,24344.181640625,14540.2724609375,24209.021484375,14481.1533203125C24209.021484375,14481.1533203125,24137.943359375,14445.8544921875,24148.845703125,14366.5009765625C24159.701171875,14287.2275390625,24223.99609375,14273.2275390625,24251.19921875,14286.0791015625C24278.4609375,14298.912109375,24315.484375,14339.751953125,24289.361328125,14381.6513671875C24263.248046875,14423.5654296875,24261.01953125,14425.9697265625,24278.4609375,14429.4423828125C24295.83984375,14432.9169921875,24350.310546875,14406.16796875,24355.779296875,14329.2353515625C24361.2109375,14252.279296875,24212.048828125,14165.9716796875,24135.818359375,14259.2353515625C24059.578125,14352.4990234375,24076.9921875,14470.27734375,24194.56640625,14528.58984375C24312.173828125,14586.8984375,24438.48828125,14486.595703125,24460.255859375,14416.6005859375C24482.025390625,14346.61328125,24492.185546875,14253.9765625,24425.568359375,14166.2314453125C24358.87890625,14078.59765625,23951.72265625,13668.1005859375,23693.982421875,13513.04296875C23436.12890625,13357.99609375,23349.205078125,13292.82421875,23349.205078125,13292.82421875L23356.44921875,13188.7734375C23356.44921875,13188.7734375,23356.44921875,13139.109375,23283.76171875,13115.0341796875C23211.1171875,13090.8681640625,22640.35546875,12915.75390625,22640.35546875,12915.75390625Z" class="fil0" style="shape-rendering: geometricprecision; text-rendering: geometricprecision; fill-rule: evenodd; clip-rule: evenodd; fill: rgb(242, 228, 202); fill-opacity: 1;"/></g></g><g id="shape-5ffa6a61-14c1-8024-8007-0ad0f884138c"><g class="fills" id="fills-5ffa6a61-14c1-8024-8007-0ad0f884138c"><path d="M18883.40625,15570.4306640625C18883.40625,15570.4306640625,19408.796875,15292.5166015625,19581.564453125,14556.763671875C19581.564453125,14556.763671875,19574.876953125,14529.4765625,19623.7421875,14552.3056640625C19672.5625,14575.134765625,19906.802734375,14620.6943359375,19933.09765625,14612.6669921875C19959.39453125,14604.646484375,19954.37890625,14640.8427734375,19943.09375,14652.875C19931.84375,14664.916015625,19681.33984375,14965.392578125,19638.708984375,15004.2587890625C19596.087890625,15043.13671875,19588.599609375,15061.95703125,19588.599609375,15061.95703125C19588.599609375,15061.95703125,20202.40234375,15623.4921875,20333.3828125,16003.939453125C20464.435546875,16384.30078125,20537.4609375,16778.64453125,20494.0390625,17023.841796875C20450.537109375,17268.947265625,20152.15234375,17365.16015625,19946.3671875,17241.046875C19740.6875,17116.9375,19817.44140625,16868.890625,19905.095703125,16793.44921875C19992.75,16718.02734375,20166.12109375,16699.5703125,20229.01171875,16811.82421875C20291.841796875,16924.078125,20215.63671875,17028.125,20175.662109375,17056.66796875C20135.75,17085.19140625,20066.65625,17070.474609375,20025.28125,17019.470703125C19983.904296875,16968.482421875,20007.7265625,16886.720703125,20045.34375,16871.919921875C20082.94921875,16857.203125,20153.0234375,16874.58203125,20151.76953125,16921.587890625C20150.515625,16968.482421875,20150.515625,16993.9765625,20120.421875,16981.9453125C20090.33203125,16969.91015625,20070.28125,16928.275390625,20055.3046875,16945.740234375C20040.2578125,16963.224609375,20047.74609375,17022.15234375,20097.92578125,17031.609375C20148.04296875,17041.0625,20196.8984375,16988.71875,20199.40625,16951.171875C20201.87890625,16913.646484375,20181.826171875,16812.974609375,20107.921875,16811.65234375C20034.0234375,16810.3046875,19945.11328125,16863.9765625,19951.3828125,16951.171875C19957.6171875,17038.3828125,20017.79296875,17132.259765625,20123.00390625,17134.94140625C20228.17578125,17137.60546875,20303.328125,17026.26171875,20310.849609375,16982.03125C20318.3046875,16937.80078125,20312.103515625,16902.94921875,20330.91015625,16880.12109375C20349.71875,16857.291015625,20367.203125,16835.890625,20368.52734375,16799.595703125C20369.78125,16763.408203125,20315.55078125,16478.724609375,20182.279296875,16264.6416015625C20049,16050.564453125,19699.06640625,15797.17578125,19539.107421875,15729.40625C19379.19140625,15661.646484375,18883.197265625,15570.7021484375,18883.197265625,15570.7021484375Z" class="fil0" style="shape-rendering: geometricprecision; text-rendering: geometricprecision; fill-rule: evenodd; clip-rule: evenodd; fill: rgb(242, 228, 202); fill-opacity: 1;"/></g></g><g id="shape-5ffa6a61-14c1-8024-8007-0ad0f884138d"><g class="fills" id="fills-5ffa6a61-14c1-8024-8007-0ad0f884138d"><path d="M22287.2890625,9428.6748046875C22287.2890625,9428.6748046875,22330.546875,9424.04296875,22343.46875,9436.345703125C22356.4921875,9448.736328125,22428.267578125,9537.724609375,22449.82421875,9554.66796875C22471.48828125,9571.603515625,22612.52734375,9564.384765625,22628.3046875,9559.83984375C22644.185546875,9555.19921875,22651.5703125,9536.03515625,22658.708984375,9502.056640625C22665.919921875,9468.169921875,22679.05078125,9430.0166015625,22689.115234375,9429.041015625C22699.21484375,9428.1435546875,22709.3515625,9569.017578125,22709.3515625,9569.017578125C22709.3515625,9569.017578125,22709.3515625,9609.138671875,22657.455078125,9609.138671875C22596.689453125,9609.138671875,22408.970703125,9634.728515625,22370.73828125,9567.501953125C22350.607421875,9532.0126953125,22287.21875,9428.6748046875,22287.21875,9428.6748046875Z" class="fil0" style="shape-rendering: geometricprecision; text-rendering: geometricprecision; fill-rule: evenodd; clip-rule: evenodd; fill: rgb(242, 228, 202); fill-opacity: 1;"/></g></g><g id="shape-5ffa6a61-14c1-8024-8007-0ad0f884138e"><g class="fills" id="fills-5ffa6a61-14c1-8024-8007-0ad0f884138e"><path d="M22405.419921875,8950.6875C22405.419921875,8950.6875,22589.8984375,8835.4951171875,22685.5625,8833.61328125C22781.193359375,8831.7509765625,22829.8828125,8893.708984375,22825.87890625,8958.4365234375C22821.802734375,9023.1767578125,22746.5390625,9098.4306640625,22634.365234375,9073.458984375C22522.224609375,9048.49609375,22405.419921875,8950.6875,22405.419921875,8950.6875ZM22515.328125,8946.046875C22515.328125,8946.046875,22625.16796875,8856.1826171875,22713.181640625,8877.662109375C22820.33984375,8903.87890625,22785.755859375,9022.646484375,22708.724609375,9027.27734375C22616.4609375,9032.7978515625,22515.328125,8945.9599609375,22515.328125,8945.9599609375Z" class="fil0" style="shape-rendering: geometricprecision; text-rendering: geometricprecision; fill-rule: evenodd; clip-rule: evenodd; fill: rgb(242, 228, 202); fill-opacity: 1;"/></g></g><g id="shape-5ffa6a61-14c1-8024-8007-0ad0f884138f"><g class="fills" id="fills-5ffa6a61-14c1-8024-8007-0ad0f884138f"><path d="M21841.865234375,9045.109375C21841.865234375,9045.109375,21898.775390625,8979.576171875,21965.080078125,8991.697265625C22031.427734375,9003.8173828125,22083.94140625,9087.0068359375,22137.33203125,9087.0068359375C22190.751953125,9087.0068359375,22204.822265625,9053.572265625,22216.875,9037.255859375C22228.8203125,9020.9482421875,22249.578125,9037.255859375,22245.224609375,9059.4580078125C22240.8359375,9081.57421875,22221.609375,9129.810546875,22140.189453125,9131.5859375C22038.568359375,9133.7275390625,22009.244140625,8998.3837890625,21841.865234375,9045.197265625Z" class="fil0" style="shape-rendering: geometricprecision; text-rendering: geometricprecision; fill-rule: evenodd; clip-rule: evenodd; fill: rgb(242, 228, 202); fill-opacity: 1;"/></g></g><g id="shape-5ffa6a61-14c1-8024-8007-0ad0f8841390"><g class="fills" id="fills-5ffa6a61-14c1-8024-8007-0ad0f8841390"><path d="M21293.1484375,8541.435546875C21293.1484375,8541.435546875,21644.3359375,8469.30859375,21851.859375,8726.619140625L21293.1484375,8541.435546875Z" class="fil0" style="shape-rendering: geometricprecision; text-rendering: geometricprecision; fill-rule: evenodd; clip-rule: evenodd; fill: rgb(242, 228, 202); fill-opacity: 1;"/></g></g><g id="shape-5ffa6a61-14c1-8024-8007-0ad0f8841391"><g class="fills" id="fills-5ffa6a61-14c1-8024-8007-0ad0f8841391"><path d="M21284.76171875,8700.412109375C21284.76171875,8700.412109375,21436.041015625,8917.8798828125,21757.275390625,8800.6328125C21757.275390625,8800.6328125,21772.076171875,8800.0927734375,21770.822265625,8813.9189453125C21769.673828125,8827.6416015625,21681.322265625,8906.5517578125,21513.875,8891.8466796875C21346.435546875,8877.130859375,21259.72265625,8732.505859375,21254.63671875,8720.646484375C21249.55078125,8708.787109375,21250.52734375,8680.794921875,21284.66015625,8700.498046875Z" class="fil0" style="shape-rendering: geometricprecision; text-rendering: geometricprecision; fill-rule: evenodd; clip-rule: evenodd; fill: rgb(242, 228, 202); fill-opacity: 1;"/></g></g><g id="shape-5ffa6a61-14c1-8024-8007-0ad0f8841392"><g class="fills" id="fills-5ffa6a61-14c1-8024-8007-0ad0f8841392"><path d="M21285.28515625,8601.705078125C21285.28515625,8601.705078125,21406.26171875,8652.802734375,21443.4609375,8662.962890625L21426.427734375,8739.3740234375C21404.58984375,8731.35546875,21339.505859375,8700.2373046875,21285.28515625,8601.705078125Z" class="fil0" style="shape-rendering: geometricprecision; text-rendering: geometricprecision; fill-rule: evenodd; clip-rule: evenodd; fill: rgb(242, 228, 202); fill-opacity: 1;"/></g></g><g id="shape-5ffa6a61-14c1-8024-8007-0ad0f8841393"><g class="fills" id="fills-5ffa6a61-14c1-8024-8007-0ad0f8841393"><path d="M20445.453125,8700.2373046875C20445.453125,8700.2373046875,20231.8671875,8318.708984375,20454.998046875,7866.669921875C20454.998046875,7866.669921875,20728.62890625,8365.69921875,20952.55859375,8480.810546875C20741.71484375,8508.001953125,20586.78125,8592.0751953125,20445.453125,8700.2373046875Z" class="fil0" style="shape-rendering: geometricprecision; text-rendering: geometricprecision; fill-rule: evenodd; clip-rule: evenodd; fill: rgb(242, 228, 202); fill-opacity: 1;"/></g></g><g id="shape-5ffa6a61-14c1-8024-8007-0ad0f8841394"><g class="fills" id="fills-5ffa6a61-14c1-8024-8007-0ad0f8841394"><path d="M20286.234375,8842.6259765625L20377.337890625,8756.849609375C20377.337890625,8756.849609375,20054.537109375,8273.23828125,20415.849609375,7794C20415.849609375,7794,19956.46875,8218.400390625,20286.234375,8842.6259765625Z" class="fil0" style="shape-rendering: geometricprecision; text-rendering: geometricprecision; fill-rule: evenodd; clip-rule: evenodd; fill: rgb(242, 228, 202); fill-opacity: 1;"/></g></g><g id="shape-5ffa6a61-14c1-8024-8007-0ad0f8841395"><g class="fills" id="fills-5ffa6a61-14c1-8024-8007-0ad0f8841395"><path d="M20287.3828125,8855.373046875C20287.3828125,8855.373046875,19920.24609375,9218.0859375,19989.89453125,9727.361328125C20059.4140625,10236.5625,20351.3203125,10535.6982421875,20351.3203125,10535.6982421875C20351.3203125,10535.6982421875,20711.59765625,10923.373046875,20781.2109375,11202.7998046875C20781.2109375,11202.7998046875,20527.1875,10896.0859375,20240.57421875,10624.68359375C19953.9609375,10353.2744140625,19884.51171875,9934.31640625,19880.0546875,9844.5263671875C19875.666015625,9754.822265625,19832.80078125,9190.2578125,20287.3828125,8855.373046875Z" class="fil0" style="shape-rendering: geometricprecision; text-rendering: geometricprecision; fill-rule: evenodd; clip-rule: evenodd; fill: rgb(242, 228, 202); fill-opacity: 1;"/></g></g><g id="shape-5ffa6a61-14c1-8024-8007-0ad0f884551c"><g class="fills" id="fills-5ffa6a61-14c1-8024-8007-0ad0f884551c"><path d="M18741.880859375,12540.84375L18940.62890625,12546.544921875C18940.62890625,12546.544921875,19031.62890625,12681.982421875,19197.291015625,12711.220703125C19197.291015625,12711.220703125,19387.203125,13166.0302734375,19902.06640625,13433.693359375C20620.66796875,13807.3603515625,21665.544921875,13254.48046875,21565.31640625,12279.95703125C21502.111328125,11664.75,21155.208984375,11435.0654296875,20863.67578125,11352.859375L20859.7734375,11292.9384765625C20859.7734375,11292.9384765625,21303.45703125,11392.3583984375,21497.861328125,11758.7197265625C22512.40234375,13672.107421875,19368.8125,14828.1669921875,18741.880859375,12540.7568359375Z" class="fil0" style="shape-rendering: geometricprecision; text-rendering: geometricprecision; fill-rule: evenodd; clip-rule: evenodd; fill: rgb(242, 228, 202); fill-opacity: 1;"/></g></g><g id="shape-5ffa6a61-14c1-8024-8007-0ad0f884551d"><g class="fills" id="fills-5ffa6a61-14c1-8024-8007-0ad0f884551d"><path d="M19279.66015625,12740.197265625C19893.4296875,12892.84765625,20907.908203125,12467.462890625,20879.2109375,11412.958984375C20913.62109375,11423.73828125,21282.638671875,11513.69921875,21433.7421875,11907.615234375C21900.724609375,13125.021484375,20367.828125,14290.7119140625,19279.66015625,12740.197265625Z" class="fil0" style="shape-rendering: geometricprecision; text-rendering: geometricprecision; fill-rule: evenodd; clip-rule: evenodd; fill: rgb(242, 228, 202); fill-opacity: 1;"/></g></g><g id="shape-5ffa6a61-14c1-8024-8007-0ad0f884551e"><g class="fills" id="fills-5ffa6a61-14c1-8024-8007-0ad0f884551e"><path d="M19531.4453125,12166.001953125C19615.0703125,12259.71484375,19596.5390625,12445.4296875,19739.43359375,12426.62109375C19882.45703125,12407.814453125,20331.43359375,12170.826171875,20483.869140625,11786.80859375C20483.869140625,11786.80859375,20509.015625,11716.189453125,20505.533203125,11692.646484375C20502.0859375,11669.111328125,20459.349609375,11673.125,20426.47265625,11648.43359375C20393.568359375,11623.6318359375,20269.203125,11463.51171875,20373.890625,11316.65625C20478.541015625,11169.9052734375,20710.515625,11149.03515625,20787.443359375,11334.2265625C20787.443359375,11334.2265625,20848.24609375,11678.7421875,20731.484375,11931.77734375C20485.9609375,12463.80078125,19723.69140625,12847.0234375,19213.173828125,12635.7060546875C18712.310546875,12428.4072265625,19251.9375,11852.7890625,19531.4453125,12166.001953125Z" class="fil0" style="shape-rendering: geometricprecision; text-rendering: geometricprecision; fill-rule: evenodd; clip-rule: evenodd; fill: rgb(242, 228, 202); fill-opacity: 1;"/></g></g><g id="shape-5ffa6a61-14c1-8024-8007-0ad0f884551f"><g class="fills" id="fills-5ffa6a61-14c1-8024-8007-0ad0f884551f"><path d="M16594.373046875,13357.013671875C16594.373046875,13357.013671875,16742.45703125,12794.7666015625,16328.23046875,12205.236328125C15797.5546875,11449.8671875,15037.79296875,12368.6640625,15635.33984375,12762.4912109375C15635.33984375,12762.4912109375,15920.701171875,12934.1259765625,16075.1904296875,12667.7109375L16098.7333984375,12593.5390625C16098.7333984375,12593.5390625,16157.5166015625,12661.20703125,16162.845703125,12707.0341796875C16168.1044921875,12752.861328125,16092.6728515625,13087.751953125,15777.14453125,13112.1875C15082.302734375,13165.943359375,14811.181640625,12188.658203125,15493.38671875,11714.4931640625C15763.150390625,11526.8984375,16267.0791015625,11581.462890625,16570.095703125,11931.77734375C16873.12109375,12282.091796875,16875.203125,12915.75390625,16875.203125,12915.75390625L16594.51171875,13356.92578125Z" class="fil0" style="shape-rendering: geometricprecision; text-rendering: geometricprecision; fill-rule: evenodd; clip-rule: evenodd; fill: rgb(242, 228, 202); fill-opacity: 1;"/></g></g><g id="shape-5ffa6a61-14c1-8024-8007-0ad0f8845520"><g class="fills" id="fills-5ffa6a61-14c1-8024-8007-0ad0f8845520"><path d="M16934.203125,12847.99609375L17129.365234375,12647.20703125C17129.365234375,12647.20703125,17081.8671875,12127.39453125,16763.2734375,11740.712890625C16444.755859375,11354.0166015625,15791.14453125,11107.0419921875,15196.6015625,11531.0078125C14602.015625,11954.955078125,14759.1201171875,12704.0888671875,14926.974609375,12935.380859375C15380.33984375,13560.0361328125,16233.9921875,13318.3193359375,16222.3935546875,12807.5234375C16222.3935546875,12807.5234375,16126.65625,13057.3466796875,15910.35546875,13141.51171875C15693.98046875,13225.685546875,15309.54296875,13162.025390625,15105.8466796875,12776.220703125C14902.109375,12390.33203125,15118.865234375,11978.5859375,15257.751953125,11816.044921875C15851.2587890625,11121.66796875,16919.85546875,11640.7529296875,16934.203125,12847.99609375Z" class="fil0" style="shape-rendering: geometricprecision; text-rendering: geometricprecision; fill-rule: evenodd; clip-rule: evenodd; fill: rgb(242, 228, 202); fill-opacity: 1;"/></g></g><g id="shape-5ffa6a61-14c1-8024-8007-0ad0f8845521"><g class="fills" id="fills-5ffa6a61-14c1-8024-8007-0ad0f8845521"><path d="M22737.796875,8919.830078125C22768.02734375,8948.37109375,22746.259765625,9011.8447265625,22694.19921875,8993.751953125C22675.56640625,8987.2392578125,22656.93359375,8980.638671875,22638.404296875,8973.865234375C22620.990234375,8967.630859375,22578.3671875,8972.349609375,22586.30859375,8954.60546875C22606.82421875,8909.05078125,22694.375,8878.994140625,22737.69140625,8919.830078125Z" class="fil0" style="shape-rendering: geometricprecision; text-rendering: geometricprecision; fill-rule: evenodd; clip-rule: evenodd; fill: rgb(242, 228, 202); fill-opacity: 1;"/></g></g><g id="shape-5ffa6a61-14c1-8024-8007-0ad0f8845522"><g class="fills" id="fills-5ffa6a61-14c1-8024-8007-0ad0f8845522"><path d="M21495.52734375,8673.576171875L21582.068359375,8695.6923828125C21598.16015625,8699.697265625,21608.052734375,8716.990234375,21604.220703125,8734.1064453125L21597.8828125,8762.4658203125C21594.05078125,8779.583984375,21577.890625,8790.2021484375,21561.939453125,8786.18359375L21475.36328125,8764.076171875C21459.341796875,8759.966796875,21449.4140625,8742.6748046875,21453.28125,8725.556640625L21459.48046875,8697.20703125C21463.3125,8680.08984375,21479.47265625,8669.4677734375,21495.423828125,8673.490234375Z" class="fil0" style="shape-rendering: geometricprecision; text-rendering: geometricprecision; fill-rule: evenodd; clip-rule: evenodd; fill: rgb(242, 228, 202); fill-opacity: 1;"/></g></g><g id="shape-5ffa6a61-14c1-8024-8007-0ad0f8845523"><g class="fills" id="fills-5ffa6a61-14c1-8024-8007-0ad0f8845523"><path d="M21799.626953125,8737.328125C21799.626953125,8737.328125,21670.07421875,8724.5732421875,21632.6328125,8715.6572265625L21615.607421875,8792.064453125C21638.51953125,8795.4609375,21709.673828125,8799.1171875,21799.521484375,8737.232421875Z" class="fil0" style="shape-rendering: geometricprecision; text-rendering: geometricprecision; fill-rule: evenodd; clip-rule: evenodd; fill: rgb(242, 228, 202); fill-opacity: 1;"/></g></g><g id="shape-5ffa6a61-14c1-8024-8007-0ad0f884c231"><g class="fills" id="fills-5ffa6a61-14c1-8024-8007-0ad0f884c231"><path d="M14408.9111328125,17133.87890625L16016.259765625,22247.8828125L12717.2734375,22246.177734375L14408.9111328125,17133.87890625ZM17418.42578125,16742.4609375L17605.99609375,16742.4609375L17605.99609375,16441.265625L17592.517578125,16441.265625L16266.9736328125,16441.265625L16266.9736328125,16742.4609375L16775.671875,16742.4609375L16768.2890625,22651.58203125L14753.755859375,16441.265625L14298.7890625,16441.265625L11607.5087890625,24557.32421875L10857.4326171875,24551.9609375L10871.083984375,21471.193359375L13040.212890625,16756.72265625L13575.8671875,16742.4609375L13575.8671875,16441.265625L11916.8671875,16441.265625L11916.3427734375,16745.2109375L12345.96484375,16746.46484375L10402.39453125,21191.3984375L8487.533203125,16740.31640625L8926.376953125,16740.31640625L8927.5244140625,16441.265625L7564.01953125,16441.265625L7564.01953125,16736.12109375L8176.216796875,16740.31640625L10206.1884765625,21470.828125L10201.5234375,21804.03125L10214.9990234375,24571.498046875L9692.822265625,24571.498046875L9692.822265625,24872.681640625L12330.466796875,24872.681640625L12330.466796875,24571.498046875L11944.0673828125,24570.873046875L12598.4462890625,22588.6484375L16097.0625,22588.6484375C16295.498046875,23220.541015625,16498.6015625,23924.806640625,16695.5390625,24557.32421875L15949.607421875,24554.990234375L15945.49609375,24872.681640625L17927.228515625,24872.681640625L17927.228515625,24571.498046875L17418.49609375,24571.498046875L17429.5625,22120.20703125L18607.798828125,22116.548828125L19868.62890625,24571.396484375L19453.716796875,24571.396484375L19453.369140625,24872.59375L22185.109375,24872.59375L22185.109375,16742.37109375L23162.4375,16742.37109375L23162.4375,24571.498046875L22667.173828125,24586.56640625L22667.173828125,24872.681640625L24273.65234375,24872.681640625L24273.65234375,24585.8515625L23764.955078125,24585.8515625L23764.955078125,16728.09375L24743.83984375,16728.09375L24782.640625,21746.87890625L24782.640625,22019.16796875L24795.83984375,22162.73046875L24809.318359375,22291.646484375L24822.75390625,22377.69140625L24836.12890625,22463.826171875L24849.5,22549.849609375L24862.876953125,22607.28125L24876.42578125,22679.12890625L24889.625,22736.390625L24903.171875,22779.4375L24916.546875,22836.873046875L24929.9140625,22879.677734375L24943.28515625,22937.091796875L24956.833984375,22979.98046875L24970.208984375,23022.955078125L24983.513671875,23066.001953125L24996.95703125,23108.984375L25010.5390625,23152.05078125L25023.80859375,23195.119140625L25037.080078125,23223.640625L25050.548828125,23252.359375L25064.029296875,23280.96875L25077.193359375,23309.701171875L25090.498046875,23338.3984375L25104.150390625,23366.921875L25117.525390625,23395.7265625L25130.794921875,23424.181640625L25144.169921875,23453.15625L25157.779296875,23467.33203125L25171.083984375,23495.9453125L25184.283203125,23524.55859375L25197.83203125,23538.923828125L25211.484375,23567.712890625L25224.509765625,23596.34375L25238.0234375,23610.796875L25251.501953125,23625.05859375L25264.8671875,23653.7734375L25278.068359375,23668.20703125L25291.615234375,23696.8203125L25305.095703125,23711.16796875L25318.26171875,23725.53515625L25331.634765625,23739.794921875L25345.11328125,23768.513671875L25358.591796875,23782.6875L25371.8515625,23797.123046875L25385.2265625,23811.470703125L25398.70703125,23825.83984375L25411.9765625,23839.931640625L25425.349609375,23854.455078125L25438.828125,23883.08203125L25452.203125,23897.2578125L25465.369140625,23911.78125L25478.84765625,23926.234375L25492.38671875,23940.412109375L25505.5859375,23954.587890625L25518.9609375,23969.21484375L25532.439453125,23983.4765625L25545.98828125,23997.669921875L25558.978515625,24012.087890625L25572.630859375,24026.646484375L25586.109375,24040.8203125L25599.37109375,24055.064453125L25612.5703125,24069.517578125L25626.224609375,24084.04296875L25639.66796875,24098.1484375L25652.8671875,24112.49609375L25666.2421875,24126.94921875L25679.89453125,24141.298828125L25693.1640625,24155.560546875L25706.35546875,24169.908203125L25719.833984375,24184.345703125L25733.453125,24198.625L25759.95703125,24212.978515625L25773.40234375,24227.326171875L25786.87890625,24241.78125L25800.080078125,24255.955078125L25826.994140625,24270.408203125L25840.369140625,24284.759765625L25853.7421875,24299.107421875L25880.560546875,24313.373046875L25893.76171875,24327.80859375L25920.681640625,24342.17578125L25934.048828125,24356.3515625L25960.90234375,24370.78515625L25974.275390625,24385.23828125L26001.0234375,24399.587890625L26014.501953125,24413.763671875L26040.96484375,24428.21875L26068.060546875,24442.654296875L26094.53125,24456.84375L26108.181640625,24471.1953125L26134.65234375,24485.630859375L26161.740234375,24500.068359375L26188.24609375,24514.068359375L26228.47265625,24528.416015625L26255.3515625,24542.95703125L26281.9609375,24557.21875L26322.22265625,24571.498046875L26349.07421875,24585.8515625L26389.29296875,24600.375L26415.9375,24614.548828125L26456.234375,24628.724609375L26509.65234375,24643.177734375L26550.0546875,24657.701171875L26603.4375,24671.6328125L26656.93359375,24686.07421875L26723.796875,24700.509765625L26817.51171875,24714.857421875L26911.26953125,24729.03515625L27754.78515625,24729.03515625L27861.9453125,24714.857421875L27955.625,24700.509765625L28022.765625,24686.07421875L28076.33203125,24671.6328125L28129.8203125,24657.701171875L28170.046875,24643.177734375L28209.99609375,24628.724609375L28250.109375,24614.548828125L28276.927734375,24600.375L28317.154296875,24585.8515625L28343.90234375,24571.498046875L28370.748046875,24557.21875L28397.49609375,24542.95703125L28437.619140625,24528.416015625L28464.533203125,24514.068359375L28491.28125,24500.068359375L28504.759765625,24485.630859375L28531.404296875,24471.1953125L28558.326171875,24456.84375L28584.787109375,24442.654296875L28598.439453125,24428.21875L28625.015625,24413.763671875L28652.0078125,24399.587890625L28665.2421875,24385.23828125L28692.05078125,24370.78515625L28705.494140625,24356.3515625L28732.171875,24342.17578125L28745.6171875,24327.80859375L28772.296875,24313.373046875L28785.740234375,24299.107421875L28799.208984375,24284.759765625L28825.78515625,24270.408203125L28839.33203125,24255.955078125L28852.70703125,24241.78125L28866.080078125,24227.326171875L28893.00390625,24212.978515625L28906.30078125,24198.625L28919.671875,24184.345703125L28933.1171875,24169.908203125L28946.421875,24155.560546875L28973.23828125,24141.298828125L28986.822265625,24126.94921875L28999.91796875,24112.49609375L29013.45703125,24098.1484375L29026.9375,24084.04296875L29040.310546875,24069.517578125L29053.4765625,24055.064453125L29067.05859375,24040.8203125L29080.50390625,24026.646484375L29093.703125,24012.087890625L29106.97265625,23997.669921875L29120.546875,23983.4765625L29133.921875,23969.21484375L29147.0859375,23954.587890625L29160.56640625,23940.412109375L29174.11328125,23911.884765625L29187.41796875,23897.36328125L29200.6875,23883.169921875L29214.166015625,23868.994140625L29227.78515625,23854.556640625L29240.90625,23840.01953125L29254.28125,23825.92578125L29267.724609375,23811.578125L29281.16796875,23797.228515625L29294.47265625,23782.7734375L29307.84765625,23754.248046875L29321.291015625,23739.90234375L29334.59375,23725.62109375L29348.03125,23696.92578125L29361.404296875,23682.47265625L29374.8828125,23668.298828125L29388.083984375,23639.4921875L29401.6328125,23625.14453125L29415.005859375,23596.447265625L29428.380859375,23582.080078125L29441.75390625,23567.818359375L29455.224609375,23539.01171875L29468.599609375,23510.55859375L29481.765625,23496.138671875L29495.34765625,23467.505859375L29508.7890625,23438.791015625L29522.09375,23410.25L29535.26171875,23381.37890625L29548.9140625,23367.09765625L29562.3828125,23338.57421875L29575.583984375,23309.875L29588.95703125,23281.162109375L29602.576171875,23238.18359375L29615.87890625,23209.3984375L29629.080078125,23180.853515625L29642.5234375,23137.962890625L29656.17578125,23109.16015625L29669.37890625,23051.830078125L29682.7421875,23008.78125L29696.1875,22965.701171875L29709.734375,22908.28515625L29722.76171875,22865.39453125L29736.23828125,22807.98046875L29749.68359375,22765.193359375L29763.05859375,22707.7578125L29776.36328125,22650.34375L29789.90234375,22578.65234375L29803.345703125,22521.326171875L29816.544921875,22449.541015625L29829.921875,22363.517578125L29843.46875,22263.296875L29856.84375,22119.650390625L29870.146484375,21918.962890625L29870.146484375,21488.8359375L29843.46875,16742.634765625L30338.828125,16742.634765625L30338.828125,16441.458984375L28732.103515625,16441.458984375L28732.103515625,16470.15625L28732.103515625,16728.19921875L29227.6796875,16742.546875L29200.58203125,21703.7265625L29187.3125,21947.6640625L29174.04296875,22391.953125L29160.4609375,22592.7578125L29147.017578125,22707.583984375L29133.81640625,22807.8046875L29120.451171875,22879.677734375L29106.90234375,22951.3515625L29093.59765625,23008.677734375L29080.43359375,23066.107421875L29066.953125,23123.44140625L29053.40625,23166.41796875L29040.20703125,23238.18359375L29026.83203125,23295.595703125L29013.353515625,23338.57421875L28999.8125,23381.37890625L28986.71875,23424.353515625L28973.169921875,23453.33203125L28959.69140625,23481.771484375L28946.31640625,23510.66015625L28933.046875,23539.09765625L28919.5703125,23567.90625L28906.193359375,23596.517578125L28892.93359375,23625.232421875L28879.455078125,23639.59765625L28866.080078125,23668.3828125L28852.70703125,23696.994140625L28839.33203125,23711.359375L28825.78515625,23739.97265625L28812.41015625,23754.3359375L28799.208984375,23768.685546875L28785.740234375,23797.294921875L28772.296875,23811.6640625L28758.921875,23826.03125L28745.6171875,23840.10546875L28732.171875,23854.646484375L28718.625,23869.08203125L28705.494140625,23883.2578125L28692.05078125,23897.431640625L28678.61328125,23926.408203125L28665.2421875,23940.587890625L28652.0078125,23954.76171875L28625.015625,23969.388671875L28611.744140625,23983.669921875L28598.37109375,23997.84375L28584.71875,24012.28125L28571.23828125,24026.822265625L28558.255859375,24040.99609375L28531.30078125,24055.2578125L28517.923828125,24069.693359375L28504.65625,24084.234375L28491.17578125,24098.3203125L28464.4296875,24112.671875L28451.0625,24127.125L28424.140625,24141.47265625L28410.765625,24155.734375L28383.91015625,24170.099609375L28357.1640625,24184.5390625L28343.798828125,24198.798828125L28317.05078125,24213.15234375L28290.162109375,24227.501953125L28263.4140625,24241.95703125L28236.5703125,24256.130859375L28209.822265625,24270.5859375L28183.07421875,24284.931640625L28156.150390625,24299.28125L28129.576171875,24313.564453125L28089.2890625,24328L28048.9921875,24342.349609375L28009.05078125,24356.541015625L27968.9296875,24370.9609375L27928.703125,24385.4140625L27875.14453125,24399.763671875L27808.16796875,24413.939453125L27714.384765625,24428.39453125L26924.56640625,24428.39453125L26830.88671875,24413.939453125L26750.439453125,24399.763671875L26683.681640625,24385.4140625L26630.080078125,24370.9609375L26589.958984375,24356.541015625L26549.84375,24342.349609375L26496.173828125,24328L26469.259765625,24313.564453125L26429.138671875,24299.28125L26402.388671875,24284.931640625L26375.46484375,24270.5859375L26348.7265625,24256.130859375L26335.25,24241.95703125L26308.708984375,24227.501953125L26295.23046875,24213.15234375L26268.48046875,24198.798828125L26255.107421875,24184.5390625L26241.63671875,24170.099609375L26215.09765625,24155.734375L26201.515625,24141.47265625L26187.96484375,24127.125L26161.49609375,24112.671875L26147.84375,24098.3203125L26134.41015625,24084.234375L26121.27734375,24069.693359375L26107.904296875,24055.2578125L26080.98046875,24040.99609375L26067.78125,24026.822265625L26054.337890625,24012.28125L26040.68359375,23997.84375L26027.494140625,23983.669921875L26014.119140625,23969.388671875L26000.67578125,23954.76171875L25987.1953125,23940.587890625L25973.92578125,23926.408203125L25960.552734375,23897.431640625L25947.00390625,23883.2578125L25933.69921875,23869.08203125L25920.333984375,23854.646484375L25906.9609375,23826.03125L25893.41015625,23811.6640625L25880.2109375,23797.294921875L25866.76953125,23768.685546875L25853.39453125,23754.3359375L25840.01953125,23725.62109375L25826.646484375,23711.2734375L25813.16796875,23682.47265625L25799.80078125,23668.298828125L25786.6015625,23639.4921875L25773.15625,23610.865234375L25759.677734375,23596.447265625L25746.3046875,23567.818359375L25733.103515625,23539.01171875L25719.453125,23510.55859375L25706.0078125,23496.138671875L25692.81640625,23467.505859375L25679.546875,23424.353515625L25665.89453125,23395.900390625L25652.51953125,23352.923828125L25639.318359375,23323.943359375L25625.83984375,23281.162109375L25612.22265625,23238.18359375L25599.0234375,23195.29296875L25585.7265625,23137.875L25572.283203125,23094.806640625L25558.630859375,23037.39453125L25545.603515625,22979.98046875L25532.08984375,22908.111328125L25518.611328125,22822.244140625L25505.23828125,22722.037109375L25492.0390625,22621.734375L25478.49609375,22463.826171875L25465.01953125,22176.80078125L25451.853515625,21832.8359375L25438.48046875,21545.986328125L25425.001953125,16742.4609375L25733.103515625,16742.4609375L25733.103515625,17129.4921875L26014.224609375,17129.4921875L26014.224609375,16441.265625L20885.896484375,16441.265625L20885.896484375,17115.23046875L21153.712890625,17115.23046875L21153.712890625,16728.09375L21541.947265625,16728.09375L21541.947265625,24585.8515625L20658.34375,24585.8515625L19323.08203125,22109.86328125C20511.24609375,21955.255859375,21000.71875,20863.90234375,21166.98046875,19968.83203125L21180.626953125,19911.419921875L21193.998046875,19839.548828125L21207.19921875,19739.15234375L21220.642578125,19638.935546875L21234.296875,19509.91796875L21247.599609375,19265.9765625L21247.599609375,19137.236328125L21234.296875,18907.642578125L21220.642578125,18792.88671875L21207.19921875,18692.40234375L21193.998046875,18606.53125L21180.626953125,18534.6796875L21166.98046875,18463.35546875L21153.712890625,18405.92578125L21140.51171875,18348.5078125L21127.03515625,18291.09375L21113.380859375,18233.67578125L21100.28515625,18190.61328125L21086.91015625,18147.6328125L21073.466796875,18104.65625L21059.998046875,18075.85546875L21046.796875,18032.87890625L21033.353515625,18004.17578125L21019.873046875,17975.4609375L21006.5,17932.67578125L20993.126953125,17903.779296875L20979.751953125,17875.23828125L20966.2734375,17846.5390625L20953.1171875,17817.91015625L20939.533203125,17789.28515625L20926.16015625,17760.5L20912.78515625,17731.8671875L20899.41015625,17703.0859375L20885.966796875,17674.45703125L20872.591796875,17645.654296875L20859.2890625,17617.0390625L20845.84375,17588.32421875L20832.408203125,17574.0625L20819.03515625,17545.25390625L20805.73046875,17516.642578125L20792.181640625,17502.189453125L20778.703125,17473.75390625L20765.607421875,17459.212890625L20752.1640625,17430.603515625L20738.580078125,17416.42578125L20725.21484375,17387.451171875L20712.048828125,17373.27734375L20698.466796875,17344.38671875L20684.91796875,17330.10546875L20671.71875,17316.0390625L20658.34375,17301.58203125L20644.96875,17272.87890625L20631.421875,17258.70703125L20604.958984375,17258.70703125L20591.412109375,18233.67578125L20578.037109375,19395.169921875L20564.837890625,19653.37109375C20468.12890625,20786.255859375,20160.3359375,21336.0234375,19239.12109375,21660.57421875C19077.671875,21718.357421875,18898.904296875,21741.169921875,18730.2109375,21760.966796875L18556.357421875,21775.333984375L17793.216796875,21775.333984375L17418.21875,21775.333984375L17418.21875,16742.37109375Z" class="fil0" style="shape-rendering: geometricprecision; text-rendering: geometricprecision; fill-rule: evenodd; clip-rule: evenodd; fill: rgb(242, 228, 202); fill-opacity: 1;"/></g></g><g id="shape-5ffa6a61-14c1-8024-8007-0ad0f884c232"><g class="fills" id="fills-5ffa6a61-14c1-8024-8007-0ad0f884c232"><path d="M14390.3798828125,26377.4453125L12306.1201171875,26377.4453125L12306.1201171875,26253.072265625L14390.3798828125,26253.072265625Z" class="fil4" style="shape-rendering: geometricprecision; text-rendering: geometricprecision; fill-rule: evenodd; clip-rule: evenodd; fill: rgb(242, 228, 202); fill-opacity: 1;"/></g></g><g id="shape-5ffa6a61-14c1-8024-8007-0ad0f884c233"><g class="fills" id="fills-5ffa6a61-14c1-8024-8007-0ad0f884c233"><path d="M25596.724609375,26377.4453125L23512.53515625,26377.4453125L23512.53515625,26253.072265625L25596.724609375,26253.072265625Z" class="fil4" style="shape-rendering: geometricprecision; text-rendering: geometricprecision; fill-rule: evenodd; clip-rule: evenodd; fill: rgb(242, 228, 202); fill-opacity: 1;"/></g></g><g id="shape-5ffa6a61-14c1-8024-8007-0ad0f8857d53"><g class="fills" id="fills-5ffa6a61-14c1-8024-8007-0ad0f8857d53"><path d="M15371.3203125,26053.51953125L15301.1484375,26201.806640625L15289.134765625,26194.40625C15289.376953125,26191.2734375,15289.583984375,26188.8671875,15289.583984375,26187.005859375C15289.583984375,26176.57421875,15281.19140625,26165.255859375,15264.615234375,26153.30859375C15213.4609375,26115.134765625,15153.3447265625,26096.150390625,15084.3212890625,26096.150390625C15053.951171875,26096.150390625,15027.0986328125,26100.072265625,15003.7294921875,26108.1015625C14986.880859375,26114.248046875,14973.1591796875,26123.52734375,14962.7451171875,26135.822265625C14952.296875,26148.1171875,14946.96875,26161.4921875,14946.96875,26175.947265625C14946.96875,26199.578125,14960.34375,26215.619140625,14986.986328125,26224.357421875C15000.806640625,26228.642578125,15030.41015625,26233.275390625,15075.7900390625,26238.1875L15143.4521484375,26245.5703125C15183.576171875,26250.216796875,15216.107421875,26256.46875,15240.96484375,26264.478515625C15265.8662109375,26272.509765625,15287.87890625,26283.740234375,15307.0703125,26298.19140625C15326.576171875,26313.16796875,15342.09765625,26332.94921875,15353.4189453125,26357.748046875C15364.7373046875,26382.3515625,15370.51953125,26408.560546875,15370.51953125,26436.46484375C15370.51953125,26480.87109375,15357.1435546875,26520.294921875,15330.5,26554.60546875C15306.4423828125,26586.0859375,15268.8984375,26609.265625,15217.986328125,26624.43359375C15180.0224609375,26635.75,15139.4501953125,26641.46484375,15096.0263671875,26641.46484375C15018.185546875,26641.46484375,14941.3251953125,26621.470703125,14865.4765625,26581.455078125C14849.421875,26573.427734375,14839.87890625,26569.40625,14836.568359375,26569.40625C14832.947265625,26569.40625,14827.02734375,26572.712890625,14818.947265625,26579.48828125L14806.4453125,26572.5390625L14870.2138671875,26418.017578125L14882.68359375,26424.4453125C14882.68359375,26427.10546875,14882.68359375,26429.166015625,14882.68359375,26430.40234375C14882.68359375,26444.318359375,14888.802734375,26457.08203125,14901.203125,26468.744140625C14919.873046875,26486.578125,14948.7451171875,26502.005859375,14987.890625,26514.9296875C15026.85546875,26527.853515625,15063.9150390625,26534.296875,15098.9501953125,26534.296875C15137.220703125,26534.296875,15169.853515625,26527.33203125,15196.77734375,26513.5C15211.859375,26505.751953125,15223.689453125,26495.669921875,15232.53515625,26482.833984375C15241.5205078125,26470.091796875,15245.912109375,26456.890625,15245.912109375,26442.974609375C15245.912109375,26422.021484375,15235.462890625,26407.23828125,15214.4345703125,26398.21875C15199.876953125,26392.0703125,15170.2734375,26386.447265625,15125.69140625,26381.1875L15059.38671875,26373.8046875C15014.806640625,26368.89453125,14983.330078125,26364.158203125,14964.974609375,26359.80078125C14946.619140625,26355.240234375,14928.16015625,26348.099609375,14909.7705078125,26338.208984375C14883.7294921875,26324.486328125,14863.1435546875,26303.71484375,14848.271484375,26275.974609375C14834.6884765625,26251.10546875,14827.93359375,26222.40625,14827.93359375,26190.125C14827.93359375,26136.90234375,14844.96484375,26092.94921875,14879.271484375,26058.08203125C14924.05078125,26012.251953125,14991.2685546875,25989.41796875,15080.9794921875,25989.41796875C15118.482421875,25989.41796875,15153.623046875,25993.51171875,15185.978515625,26001.732421875C15218.5341796875,26009.7421875,15259.0078125,26024.822265625,15307.69921875,26046.572265625C15324.2734375,26053.6953125,15334.4375,26057.28515625,15338.2666015625,26057.28515625C15344.22265625,26057.28515625,15351.1904296875,26053.625,15359.3046875,26046.572265625L15371.3203125,26053.51953125ZM15918.2958984375,26104.265625L15918.2958984375,26581.91015625C15918.2958984375,26591.51953125,15920.349609375,26598.74609375,15924.3564453125,26603.640625C15928.46484375,26608.552734375,15935.673828125,26612.486328125,15946.017578125,26615.587890625L15946.017578125,26630.388671875L15762.28125,26630.388671875L15762.28125,26615.587890625C15772.685546875,26612.486328125,15779.72265625,26608.462890625,15783.9345703125,26603.640625C15787.87109375,26598.74609375,15789.9951171875,26591.51953125,15789.9951171875,26581.91015625L15789.9951171875,26104.265625L15607.2314453125,26104.265625C15598.59375,26104.265625,15591.908203125,26106.326171875,15587.345703125,26110.587890625C15582.818359375,26114.6796875,15579.125,26122.359375,15576.19921875,26133.41796875L15562.408203125,26133.41796875L15562.408203125,25970.525390625L15576.19921875,25970.525390625C15579.333984375,25981.845703125,15583.1650390625,25989.681640625,15587.693359375,25993.962890625C15592.08203125,25998.251953125,15598.59375,26000.373046875,15607.2314453125,26000.373046875L16100.685546875,26000.373046875C16109.6962890625,26000.373046875,16116.3837890625,25998.251953125,16121.0166015625,25993.962890625C16125.5791015625,25989.681640625,16129.3046875,25981.845703125,16132.265625,25970.525390625L16146.09375,25970.525390625L16146.09375,26133.41796875L16132.265625,26133.41796875C16129.3046875,26122.359375,16125.68359375,26114.6796875,16121.0166015625,26110.587890625C16116.48828125,26106.326171875,16109.6962890625,26104.265625,16100.685546875,26104.265625L15918.46875,26104.265625ZM16785.21484375,26469.724609375L16517.7578125,26469.724609375L16478.19140625,26558.365234375C16472.55078125,26570.65625,16469.90234375,26580.28515625,16469.90234375,26587.33984375C16469.90234375,26600.888671875,16479.4453125,26610.328125,16498.880859375,26615.517578125L16498.880859375,26630.318359375L16304.0654296875,26630.318359375L16304.0654296875,26615.517578125C16315.55859375,26613.009765625,16324.396484375,26608.7265625,16330.353515625,26602.578125C16336.4140625,26596.4296875,16343.2734375,26584.486328125,16350.9375,26566.548828125L16567.345703125,26082.607421875C16574.310546875,26067.17578125,16577.654296875,26054.859375,16577.654296875,26045.578125C16577.654296875,26031.404296875,16569.365234375,26021.337890625,16552.611328125,26015.17578125L16552.611328125,26000.373046875L16761.26171875,26000.373046875L16761.26171875,26015.17578125C16744.30078125,26020.36328125,16735.8359375,26029.541015625,16735.8359375,26042.48046875C16735.8359375,26051.2890625,16738.625,26061.552734375,16744.125,26072.88671875L16968.3359375,26558.365234375C16977.80859375,26578.947265625,16986.16015625,26593.05078125,16993.33203125,26600.607421875C17000.54296875,26608.205078125,17010.05078125,26613.111328125,17022.20703125,26615.587890625L17022.20703125,26630.388671875L16805.904296875,26630.388671875L16805.904296875,26615.587890625C16824.919921875,26612.3125,16834.357421875,26602.666015625,16834.357421875,26586.974609375C16834.357421875,26580.548828125,16831.607421875,26571.0078125,16825.685546875,26558.451171875L16785.21484375,26469.828125ZM16748.3046875,26383.328125L16652.83984375,26158.830078125L16555.919921875,26383.328125L16748.3046875,26383.328125ZM17547.5859375,26366.837890625L17547.5859375,26581.91015625C17547.5859375,26591.51953125,17549.642578125,26598.74609375,17553.75390625,26603.640625C17558.001953125,26608.552734375,17565.248046875,26612.486328125,17575.48828125,26615.587890625L17575.48828125,26630.388671875L17390.771484375,26630.388671875L17390.771484375,26615.587890625C17401.01171875,26612.486328125,17408.4296875,26608.462890625,17412.71484375,26603.640625C17416.96484375,26598.74609375,17419.19140625,26591.51953125,17419.19140625,26581.91015625L17419.19140625,26366.837890625L17229.107421875,26080.2734375C17212.80859375,26055.66015625,17199.89453125,26039.171875,17190.59375,26030.603515625C17181.328125,26022.140625,17170.1875,26017.0546875,17157.263671875,26015.17578125L17157.263671875,26000.373046875L17389.693359375,26000.373046875L17389.693359375,26015.17578125C17370.43359375,26018.484375,17360.71484375,26028.115234375,17360.71484375,26043.91015625C17360.71484375,26049.408203125,17366.6015625,26061.552734375,17378.375,26080.2734375L17484.279296875,26249.330078125L17593.421875,26080.2734375C17605.16015625,26062.177734375,17611.08203125,26049.86328125,17611.08203125,26043.453125C17611.08203125,26036.314453125,17608.3984375,26030.255859375,17603.3125,26025.171875C17598.125,26020.0859375,17591.08984375,26016.791015625,17582.173828125,26015.27734375L17582.173828125,26000.4765625L17809.796875,26000.4765625L17809.796875,26015.27734375C17796.83984375,26017.158203125,17785.625,26022.228515625,17776.359375,26030.70703125C17767.095703125,26039.171875,17754.1484375,26055.748046875,17737.84765625,26080.376953125L17547.76171875,26366.923828125ZM19012.125,26413.734375L19094.033203125,26545.33984375L19082.88671875,26553.73046875C19074.814453125,26545.6875,19068.19921875,26541.78515625,19063.04296875,26541.78515625C19057.85546875,26541.78515625,19043.330078125,26549.169921875,19019.4375,26563.970703125C18970.05078125,26594.375,18928.509765625,26614.974609375,18894.69140625,26625.583984375C18861.01171875,26636.205078125,18820.896484375,26641.46484375,18774.19140625,26641.46484375C18681.556640625,26641.46484375,18605.328125,26618.00390625,18545.83984375,26570.9375C18510.703125,26543.5625,18483.189453125,26509.49609375,18463.025390625,26468.833984375C18439.7578125,26422.564453125,18428.16015625,26371.123046875,18428.16015625,26315.224609375C18428.16015625,26238.986328125,18449.0234375,26172.638671875,18490.642578125,26116.38671875C18553.326171875,26031.771484375,18647.912109375,25989.41796875,18774.611328125,25989.41796875C18821.24609375,25989.41796875,18861.1171875,25994.677734375,18894.552734375,26005.19921875C18927.77734375,26015.62890625,18969.43359375,26036.23046875,19019.4375,26067.00390625C19043.259765625,26081.525390625,19057.85546875,26088.560546875,19063.04296875,26088.560546875C19068.19921875,26088.560546875,19074.814453125,26084.642578125,19082.88671875,26076.615234375L19094.033203125,26085.0078125L19012.125,26216.521484375L19000.421875,26208.232421875C19001.048828125,26203.322265625,19001.328125,26199.2109375,19001.328125,26195.732421875C19001.328125,26186.91796875,18997.775390625,26178.455078125,18990.634765625,26170.6875C18983.42578125,26162.8515625,18970.6796875,26153.380859375,18952.228515625,26142.33203125C18901.482421875,26111.65234375,18847.64453125,26096.150390625,18790.66796875,26096.150390625C18723.45703125,26096.150390625,18669.85546875,26114.0546875,18629.84375,26150.169921875C18582.755859375,26192.265625,18559.212890625,26247.36328125,18559.212890625,26315.29296875C18559.212890625,26383.15625,18582.755859375,26438.345703125,18629.84375,26480.43359375C18669.78515625,26516.53125,18723.3515625,26534.470703125,18790.66796875,26534.470703125C18847.64453125,26534.470703125,18901.482421875,26519.0390625,18952.228515625,26488.283203125C18970.57421875,26477.2109375,18983.42578125,26467.7734375,18990.634765625,26459.916015625C18997.84375,26451.99609375,19001.328125,26443.70703125,19001.328125,26434.6875C19001.328125,26431.39453125,19000.98046875,26427.30078125,19000.421875,26422.734375L19012.125,26413.92578125ZM19488.021484375,26526.533203125L19849.484375,26526.533203125C19858.390625,26526.533203125,19865.1484375,26524.3046875,19869.779296875,26520.09765625C19874.341796875,26515.642578125,19878.068359375,26507.98046875,19881.029296875,26496.921875L19894.8203125,26496.921875L19894.8203125,26659.990234375L19881.029296875,26659.990234375C19878.068359375,26648.77734375,19874.412109375,26641.2890625,19869.779296875,26636.830078125C19865.21875,26632.548828125,19858.458984375,26630.388671875,19849.484375,26630.388671875L19331.9296875,26630.388671875L19331.9296875,26615.587890625C19342.34375,26612.486328125,19349.37890625,26608.462890625,19353.59375,26603.640625C19357.529296875,26598.74609375,19359.55078125,26591.51953125,19359.55078125,26581.91015625L19359.55078125,26048.97265625C19359.55078125,26039.345703125,19357.529296875,26032.138671875,19353.59375,26027.224609375C19349.482421875,26022.314453125,19342.34375,26018.396484375,19331.9296875,26015.27734375L19331.9296875,26000.4765625L19515.677734375,26000.4765625L19515.677734375,26015.27734375C19505.333984375,26018.13671875,19498.19140625,26021.86328125,19494.013671875,26027.119140625C19490.078125,26032.138671875,19488.021484375,26039.451171875,19488.021484375,26049.0625L19488.021484375,26526.703125ZM20537.21875,26469.654296875L20269.759765625,26469.654296875L20230.16015625,26558.259765625C20224.552734375,26570.5703125,20221.8359375,26580.201171875,20221.8359375,26587.236328125C20221.8359375,26600.80078125,20231.380859375,26610.2578125,20250.8125,26615.412109375L20250.8125,26630.212890625L20056.03515625,26630.212890625L20056.03515625,26615.412109375C20067.529296875,26612.921875,20076.3671875,26608.65625,20082.322265625,26602.490234375C20088.3828125,26596.345703125,20095.27734375,26584.376953125,20102.94140625,26566.478515625L20319.3828125,26082.498046875C20326.34765625,26067.072265625,20329.65625,26054.77734375,20329.65625,26045.509765625C20329.65625,26031.333984375,20321.4375,26021.25,20304.685546875,26015.107421875L20304.685546875,26000.302734375L20513.298828125,26000.302734375L20513.298828125,26015.107421875C20496.373046875,26020.2578125,20487.912109375,26029.453125,20487.912109375,26042.373046875C20487.912109375,26051.201171875,20490.662109375,26061.46484375,20496.19921875,26072.78515625L20720.408203125,26558.259765625C20729.8828125,26578.87890625,20738.232421875,26592.947265625,20745.4765625,26600.5390625C20752.6875,26608.099609375,20762.228515625,26613.009765625,20774.244140625,26615.517578125L20774.244140625,26630.318359375L20557.9765625,26630.318359375L20557.9765625,26615.517578125C20576.958984375,26612.208984375,20586.396484375,26602.578125,20586.396484375,26586.88671875C20586.396484375,26580.478515625,20583.64453125,26570.9375,20577.759765625,26558.365234375L20537.2890625,26469.724609375ZM20500.30859375,26383.240234375L20404.80859375,26158.74609375L20307.890625,26383.240234375L20500.30859375,26383.240234375ZM21521.119140625,26053.345703125L21450.947265625,26201.619140625L21438.896484375,26194.232421875C21439.17578125,26191.09765625,21439.349609375,26188.6953125,21439.349609375,26186.814453125C21439.349609375,26176.40234375,21430.990234375,26165.08203125,21414.2734375,26153.138671875C21363.119140625,26114.9609375,21303.111328125,26095.978515625,21234.123046875,26095.978515625C21203.71484375,26095.978515625,21176.8984375,26099.87890625,21153.50390625,26107.921875C21136.576171875,26114.0546875,21122.923828125,26123.337890625,21112.5078125,26135.646484375C21102.09765625,26147.94140625,21096.732421875,26161.3203125,21096.732421875,26175.7734375C21096.732421875,26199.388671875,21110.10546875,26215.44140625,21136.78515625,26224.185546875C21150.576171875,26228.46875,21180.173828125,26233.1015625,21225.5546875,26238.01171875L21293.21875,26245.392578125C21333.33984375,26250.02734375,21365.87109375,26256.279296875,21390.7734375,26264.3046875C21415.630859375,26272.31640625,21437.677734375,26283.56640625,21456.833984375,26298.017578125C21476.337890625,26312.994140625,21491.87109375,26332.77734375,21503.19140625,26357.57421875C21514.501953125,26382.162109375,21520.21484375,26408.38671875,21520.21484375,26436.2890625C21520.21484375,26480.693359375,21506.84765625,26520.09765625,21480.16796875,26554.4296875C21456.103515625,26585.9140625,21418.591796875,26609.08984375,21367.681640625,26624.2578125C21329.681640625,26635.576171875,21289.107421875,26641.2890625,21245.720703125,26641.2890625C21167.88671875,26641.2890625,21091.08984375,26621.294921875,21015.171875,26581.28125C20999.115234375,26573.234375,20989.572265625,26569.23046875,20986.3359375,26569.23046875C20982.7109375,26569.23046875,20976.826171875,26572.5390625,20968.7109375,26579.314453125L20956.2421875,26572.365234375L21019.978515625,26417.82421875L21032.447265625,26424.25C21032.447265625,26426.935546875,21032.447265625,26428.974609375,21032.447265625,26430.232421875C21032.447265625,26444.14453125,21038.611328125,26456.890625,21050.9765625,26468.57421875C21069.63671875,26486.408203125,21098.5078125,26501.8359375,21137.654296875,26514.755859375C21176.619140625,26527.681640625,21213.677734375,26534.103515625,21248.751953125,26534.103515625C21286.984375,26534.103515625,21319.6171875,26527.158203125,21346.541015625,26513.328125C21361.62109375,26505.560546875,21373.462890625,26495.49609375,21382.30859375,26482.66015625C21391.294921875,26469.8984375,21395.68359375,26456.716796875,21395.68359375,26442.80078125C21395.68359375,26421.8515625,21385.236328125,26407.046875,21364.19921875,26398.044921875C21349.5703125,26391.87890625,21320.0703125,26386.2734375,21275.498046875,26381.01171875L21209.150390625,26373.611328125C21164.578125,26368.720703125,21133.091796875,26363.98046875,21114.73828125,26359.611328125C21096.3828125,26355.06640625,21077.92578125,26347.927734375,21059.544921875,26338.037109375C21033.52734375,26324.314453125,21012.943359375,26303.51953125,20998.037109375,26275.798828125C20984.48828125,26250.9296875,20977.6953125,26222.234375,20977.6953125,26189.947265625C20977.6953125,26136.712890625,20994.7265625,26092.7578125,21029.068359375,26057.888671875C21073.814453125,26012.07421875,21141.03515625,25989.2265625,21230.8125,25989.2265625C21268.359375,25989.2265625,21303.45703125,25993.33984375,21335.84765625,26001.55859375C21368.376953125,26009.56640625,21408.841796875,26024.6484375,21457.53125,26046.37890625C21474.107421875,26053.51953125,21484.279296875,26057.087890625,21488.109375,26057.087890625C21494.099609375,26057.087890625,21501.06640625,26053.431640625,21509.13671875,26046.37890625L21521.189453125,26053.345703125ZM22306.375,26053.345703125L22236.205078125,26201.619140625L22224.189453125,26194.232421875C22224.466796875,26191.09765625,22224.60546875,26188.6953125,22224.60546875,26186.814453125C22224.60546875,26176.40234375,22216.24609375,26165.08203125,22199.66796875,26153.138671875C22148.478515625,26114.9609375,22088.3984375,26095.978515625,22019.412109375,26095.978515625C21988.97265625,26095.978515625,21962.154296875,26099.87890625,21938.79296875,26107.921875C21921.935546875,26114.0546875,21908.212890625,26123.337890625,21897.80078125,26135.646484375C21887.3515625,26147.94140625,21882.091796875,26161.3203125,21882.091796875,26175.7734375C21882.091796875,26199.388671875,21895.466796875,26215.44140625,21922.109375,26224.185546875C21935.9375,26228.46875,21965.53125,26233.1015625,22010.9140625,26238.01171875L22078.578125,26245.392578125C22118.806640625,26250.02734375,22151.265625,26256.279296875,22176.123046875,26264.3046875C22200.9921875,26272.31640625,22223.00390625,26283.56640625,22242.1953125,26298.017578125C22261.802734375,26312.994140625,22277.23046875,26332.77734375,22288.54296875,26357.57421875C22299.861328125,26382.162109375,22305.677734375,26408.38671875,22305.677734375,26436.2890625C22305.677734375,26480.693359375,22292.3046875,26520.09765625,22265.6328125,26554.4296875C22241.568359375,26585.9140625,22204.021484375,26609.08984375,22153.146484375,26624.2578125C22115.1484375,26635.576171875,22074.572265625,26641.2890625,22031.150390625,26641.2890625C21953.306640625,26641.2890625,21876.484375,26621.294921875,21800.6015625,26581.28125C21784.544921875,26573.234375,21775.00390625,26569.23046875,21771.728515625,26569.23046875C21768.072265625,26569.23046875,21762.185546875,26572.5390625,21754.0703125,26579.314453125L21741.56640625,26572.365234375L21805.33984375,26417.82421875L21817.806640625,26424.25C21817.806640625,26426.935546875,21817.806640625,26428.974609375,21817.806640625,26430.232421875C21817.806640625,26444.14453125,21823.970703125,26456.890625,21836.37109375,26468.57421875C21854.99609375,26486.408203125,21883.8671875,26501.8359375,21923.015625,26514.755859375C21961.98046875,26527.681640625,21999.07421875,26534.103515625,22034.109375,26534.103515625C22072.34375,26534.103515625,22105.083984375,26527.158203125,22131.96875,26513.328125C22146.982421875,26505.560546875,22158.927734375,26495.49609375,22167.73828125,26482.66015625C22176.75,26469.8984375,22181.10546875,26456.716796875,22181.10546875,26442.80078125C22181.10546875,26421.8515625,22170.69140625,26407.046875,22149.662109375,26398.044921875C22135.10546875,26391.87890625,22105.5,26386.2734375,22060.919921875,26381.01171875L21994.615234375,26373.611328125C21950.03515625,26368.720703125,21918.55859375,26363.98046875,21900.16796875,26359.611328125C21881.814453125,26355.06640625,21863.388671875,26347.927734375,21844.998046875,26338.037109375C21818.955078125,26324.314453125,21798.373046875,26303.51953125,21783.5,26275.798828125C21769.916015625,26250.9296875,21763.162109375,26222.234375,21763.162109375,26189.947265625C21763.162109375,26136.712890625,21780.193359375,26092.7578125,21814.5,26057.888671875C21859.279296875,26012.07421875,21926.498046875,25989.2265625,22016.173828125,25989.2265625C22053.71875,25989.2265625,22088.8515625,25993.33984375,22121.208984375,26001.55859375C22153.73828125,26009.56640625,22194.234375,26024.6484375,22242.890625,26046.37890625C22259.505859375,26053.51953125,22269.638671875,26057.087890625,22273.505859375,26057.087890625C22279.4609375,26057.087890625,22286.3828125,26053.431640625,22294.53125,26046.37890625L22306.548828125,26053.345703125ZM22870.1015625,26366.6640625L22870.1015625,26581.71484375C22870.1015625,26591.345703125,22872.15625,26598.576171875,22876.265625,26603.46484375C22880.515625,26608.375,22887.759765625,26612.3125,22898,26615.412109375L22898,26630.212890625L22713.287109375,26630.212890625L22713.287109375,26615.412109375C22723.517578125,26612.3125,22730.935546875,26608.2890625,22735.220703125,26603.46484375C22739.46875,26598.576171875,22741.697265625,26591.345703125,22741.697265625,26581.71484375L22741.697265625,26366.6640625L22551.62109375,26080.099609375C22535.3203125,26055.490234375,22522.3984375,26038.99609375,22513.099609375,26030.427734375C22503.8359375,26021.966796875,22492.69921875,26016.87890625,22479.77734375,26014.998046875L22479.77734375,26000.197265625L22712.20703125,26000.197265625L22712.20703125,26014.998046875C22692.9453125,26018.306640625,22683.228515625,26027.9375,22683.228515625,26043.71484375C22683.228515625,26049.23828125,22689.115234375,26061.37890625,22700.88671875,26080.099609375L22806.79296875,26249.15625L22915.9375,26080.099609375C22927.67578125,26061.986328125,22933.59375,26049.69140625,22933.59375,26043.283203125C22933.59375,26036.140625,22930.9140625,26030.08203125,22925.828125,26024.99609375C22920.638671875,26019.912109375,22913.6015625,26016.603515625,22904.6875,26015.107421875L22904.6875,26000.302734375L23132.30859375,26000.302734375L23132.30859375,26015.107421875C23119.353515625,26016.96875,23108.138671875,26022.052734375,23098.875,26030.533203125C23089.609375,26038.99609375,23076.654296875,26055.57421875,23060.353515625,26080.185546875L22870.27734375,26366.75Z" class="fil4" style="shape-rendering: geometricprecision; text-rendering: geometricprecision; fill-rule: evenodd; clip-rule: evenodd; fill: rgb(242, 228, 202); fill-opacity: 1;"/></g></g><g id="shape-5ffa6a61-14c1-8024-8007-0ad0f8857d54"><g class="fills" id="fills-5ffa6a61-14c1-8024-8007-0ad0f8857d54"><path d="M30857.42578125,15707.7431640625C31086.40625,15707.7431640625,31271.9921875,15893.2919921875,31271.9921875,16122.33984375C31271.9921875,16351.3017578125,31086.40625,16536.94140625,30857.42578125,16536.94140625C30628.48046875,16536.94140625,30442.859375,16351.3017578125,30442.859375,16122.33984375C30442.859375,15893.3798828125,30628.375,15707.7431640625,30857.42578125,15707.7431640625Z" class="fil3 str1" style="shape-rendering: geometricprecision; text-rendering: geometricprecision; fill-rule: evenodd; clip-rule: evenodd; fill: rgb(37, 56, 77); fill-opacity: 1;"/></g><g class="strokes" id="strokes-3cfe7be8-6eb9-80c3-8007-0ae163068f16-5ffa6a61-14c1-8024-8007-0ad0f8857d54" style="shape-rendering: geometricprecision; text-rendering: geometricprecision; fill-rule: evenodd; clip-rule: evenodd;"><g class="inner-stroke-shape"><defs><clipPath id="inner-stroke-render-33-5ffa6a61-14c1-8024-8007-0ad0f8857d54-0"><use href="#stroke-shape-render-33-5ffa6a61-14c1-8024-8007-0ad0f8857d54-0"/></clipPath><path d="M30857.42578125,15707.7431640625C31086.40625,15707.7431640625,31271.9921875,15893.2919921875,31271.9921875,16122.33984375C31271.9921875,16351.3017578125,31086.40625,16536.94140625,30857.42578125,16536.94140625C30628.48046875,16536.94140625,30442.859375,16351.3017578125,30442.859375,16122.33984375C30442.859375,15893.3798828125,30628.375,15707.7431640625,30857.42578125,15707.7431640625Z" id="stroke-shape-render-33-5ffa6a61-14c1-8024-8007-0ad0f8857d54-0" style="fill: none; stroke-width: 80; stroke: rgb(242, 228, 202); stroke-opacity: 1;"/></defs><use href="#stroke-shape-render-33-5ffa6a61-14c1-8024-8007-0ad0f8857d54-0" clip-path="url('#inner-stroke-render-33-5ffa6a61-14c1-8024-8007-0ad0f8857d54-0')"/></g></g></g><g id="shape-5ffa6a61-14c1-8024-8007-0ad0f8857d55"><g class="fills" id="fills-5ffa6a61-14c1-8024-8007-0ad0f8857d55"><path d="M31020.650390625,16200.9873046875L31095.11328125,16219.7939453125C31079.61328125,16280.8720703125,31051.61328125,16327.234375,31011.2109375,16359.328125C30970.853515625,16391.3359375,30921.466796875,16407.390625,30862.96484375,16407.390625C30802.60546875,16407.390625,30753.40234375,16395.078125,30715.5078125,16370.3896484375C30677.615234375,16345.7822265625,30648.8203125,16310.119140625,30629.10546875,16263.4833984375C30609.4296875,16216.6767578125,30599.3984375,16166.662109375,30599.3984375,16112.982421875C30599.3984375,16054.5791015625,30610.47265625,16003.5732421875,30632.83203125,15960.0751953125C30655.125,15916.470703125,30686.94921875,15883.478515625,30728.15234375,15860.8330078125C30769.353515625,15838.1884765625,30814.7265625,15826.955078125,30864.11328125,15826.955078125C30920.3515625,15826.955078125,30967.544921875,15841.224609375,31005.673828125,15869.8359375C31044.0546875,15898.462890625,31070.59375,15938.5859375,31085.673828125,15990.384765625L31012.744140625,16007.68359375C30999.82421875,15966.935546875,30980.814453125,15937.0693359375,30956.12109375,15918.5244140625C30931.427734375,15899.8916015625,30900.2890625,15890.6103515625,30862.7890625,15890.6103515625C30819.8125,15890.6103515625,30783.693359375,15900.955078125,30754.828125,15921.5537109375C30725.921875,15942.146484375,30705.51171875,15970.052734375,30693.9140625,16004.828125C30682.142578125,16039.77734375,30676.291015625,16075.7060546875,30676.291015625,16112.625C30676.291015625,16160.3203125,30683.220703125,16202.0478515625,30697.048828125,16237.625C30710.9453125,16273.2890625,30732.43359375,16299.861328125,30761.76171875,16317.51953125C30791.0078125,16335.1611328125,30822.66796875,16343.900390625,30856.833984375,16343.900390625C30898.33984375,16343.900390625,30933.37890625,16331.869140625,30962.11328125,16307.9765625C30990.9140625,16283.9013671875,31010.33984375,16248.3251953125,31020.58203125,16201.072265625Z" class="fil4" style="shape-rendering: geometricprecision; text-rendering: geometricprecision; fill-rule: evenodd; clip-rule: evenodd; fill: rgb(242, 228, 202); fill-opacity: 1;"/></g></g></g></g></g></g></g></g></g></g></g></g></svg>